<mxfile host="app.diagrams.net" modified="2023-07-31T06:35:44.079Z" agent="Mozilla/5.0 (Windows NT 10.0; Win64; x64) AppleWebKit/537.36 (KHTML, like Gecko) Chrome/115.0.0.0 Safari/537.36" etag="W5bTIgNd7jX47vaFK-YF" version="21.6.6" type="github">
  <diagram id="C5RBs43oDa-KdzZeNtuy" name="Page-1">
    <mxGraphModel dx="1286" dy="601" grid="1" gridSize="10" guides="1" tooltips="1" connect="1" arrows="1" fold="1" page="1" pageScale="1" pageWidth="827" pageHeight="1169" math="0" shadow="0">
      <root>
        <mxCell id="WIyWlLk6GJQsqaUBKTNV-0" />
        <mxCell id="WIyWlLk6GJQsqaUBKTNV-1" parent="WIyWlLk6GJQsqaUBKTNV-0" />
        <mxCell id="klwGeNsfM9cUBa_eAm7o-1" value="Potential Slot Patron" style="swimlane;childLayout=stackLayout;resizeParent=1;resizeParentMax=0;horizontal=1;startSize=30;horizontalStack=0;html=1;direction=east;fillColor=#4d90fe;fontColor=#ffffff;strokeColor=#006EAF;" parent="WIyWlLk6GJQsqaUBKTNV-1" vertex="1">
          <mxGeometry x="60" y="600" width="1370" height="1260" as="geometry" />
        </mxCell>
        <mxCell id="klwGeNsfM9cUBa_eAm7o-2" value="Host Mobile User" style="swimlane;startSize=40;horizontal=0;html=1;fillColor=#4d90fe;fontColor=#ffffff;strokeColor=#006EAF;" parent="klwGeNsfM9cUBa_eAm7o-1" vertex="1">
          <mxGeometry y="30" width="1370" height="190" as="geometry" />
        </mxCell>
        <mxCell id="klwGeNsfM9cUBa_eAm7o-10" value="" style="edgeStyle=orthogonalEdgeStyle;rounded=0;orthogonalLoop=1;jettySize=auto;html=1;" parent="klwGeNsfM9cUBa_eAm7o-2" source="klwGeNsfM9cUBa_eAm7o-5" target="klwGeNsfM9cUBa_eAm7o-6" edge="1">
          <mxGeometry relative="1" as="geometry" />
        </mxCell>
        <mxCell id="klwGeNsfM9cUBa_eAm7o-5" value="START" style="strokeWidth=2;html=1;shape=mxgraph.flowchart.start_2;whiteSpace=wrap;fillColor=#008a00;fontColor=#ffffff;strokeColor=#005700;" parent="klwGeNsfM9cUBa_eAm7o-2" vertex="1">
          <mxGeometry x="85" y="12" width="49" height="50" as="geometry" />
        </mxCell>
        <mxCell id="klwGeNsfM9cUBa_eAm7o-6" value="Login Host &lt;br&gt;Mobile" style="rounded=1;whiteSpace=wrap;html=1;absoluteArcSize=1;arcSize=14;strokeWidth=2;fillColor=#4d90fe;fontColor=#ffffff;strokeColor=#006EAF;" parent="klwGeNsfM9cUBa_eAm7o-2" vertex="1">
          <mxGeometry x="60" y="93" width="100" height="50" as="geometry" />
        </mxCell>
        <mxCell id="6y5OVStyXJfQSKZEXA0N-157" value="" style="edgeStyle=orthogonalEdgeStyle;rounded=0;orthogonalLoop=1;jettySize=auto;html=1;" edge="1" parent="klwGeNsfM9cUBa_eAm7o-2" source="klwGeNsfM9cUBa_eAm7o-15" target="v9JNbprJfih71NEvu1Gb-0">
          <mxGeometry relative="1" as="geometry" />
        </mxCell>
        <mxCell id="klwGeNsfM9cUBa_eAm7o-15" value="Click Potential Patron" style="rounded=1;whiteSpace=wrap;html=1;absoluteArcSize=1;arcSize=14;strokeWidth=2;fillColor=#4d90fe;fontColor=#ffffff;strokeColor=#006EAF;" parent="klwGeNsfM9cUBa_eAm7o-2" vertex="1">
          <mxGeometry x="208" y="92" width="100" height="50" as="geometry" />
        </mxCell>
        <mxCell id="klwGeNsfM9cUBa_eAm7o-104" value="Loop&amp;nbsp; for each open rating record" style="rounded=0;whiteSpace=wrap;html=1;dashed=1;strokeColor=#0000FF;" parent="klwGeNsfM9cUBa_eAm7o-2" vertex="1">
          <mxGeometry x="940" y="20" width="230" height="50" as="geometry" />
        </mxCell>
        <mxCell id="v9JNbprJfih71NEvu1Gb-0" value="Switch to &quot;Slot&quot;" style="rounded=1;whiteSpace=wrap;html=1;absoluteArcSize=1;arcSize=14;strokeWidth=2;fillColor=#4d90fe;fontColor=#ffffff;strokeColor=#006EAF;" parent="klwGeNsfM9cUBa_eAm7o-2" vertex="1">
          <mxGeometry x="375" y="92" width="100" height="50" as="geometry" />
        </mxCell>
        <mxCell id="klwGeNsfM9cUBa_eAm7o-17" value="" style="edgeStyle=orthogonalEdgeStyle;rounded=0;orthogonalLoop=1;jettySize=auto;html=1;" parent="klwGeNsfM9cUBa_eAm7o-1" source="klwGeNsfM9cUBa_eAm7o-6" target="WIyWlLk6GJQsqaUBKTNV-6" edge="1">
          <mxGeometry relative="1" as="geometry" />
        </mxCell>
        <mxCell id="klwGeNsfM9cUBa_eAm7o-19" value="" style="edgeStyle=orthogonalEdgeStyle;rounded=0;orthogonalLoop=1;jettySize=auto;html=1;" parent="klwGeNsfM9cUBa_eAm7o-1" source="klwGeNsfM9cUBa_eAm7o-16" target="klwGeNsfM9cUBa_eAm7o-15" edge="1">
          <mxGeometry relative="1" as="geometry" />
        </mxCell>
        <mxCell id="klwGeNsfM9cUBa_eAm7o-105" value="" style="edgeStyle=orthogonalEdgeStyle;rounded=0;orthogonalLoop=1;jettySize=auto;html=1;" parent="klwGeNsfM9cUBa_eAm7o-1" target="klwGeNsfM9cUBa_eAm7o-104" edge="1">
          <mxGeometry relative="1" as="geometry">
            <mxPoint x="830" y="196" as="sourcePoint" />
            <Array as="points">
              <mxPoint x="830" y="150" />
              <mxPoint x="1050" y="150" />
            </Array>
          </mxGeometry>
        </mxCell>
        <mxCell id="6y5OVStyXJfQSKZEXA0N-158" value="" style="edgeStyle=orthogonalEdgeStyle;rounded=0;orthogonalLoop=1;jettySize=auto;html=1;" edge="1" parent="klwGeNsfM9cUBa_eAm7o-1" source="v9JNbprJfih71NEvu1Gb-0" target="klwGeNsfM9cUBa_eAm7o-31">
          <mxGeometry relative="1" as="geometry" />
        </mxCell>
        <mxCell id="klwGeNsfM9cUBa_eAm7o-3" value="Host Mobile App" style="swimlane;startSize=40;horizontal=0;html=1;fillColor=#4d90fe;fontColor=#ffffff;strokeColor=#006EAF;" parent="klwGeNsfM9cUBa_eAm7o-1" vertex="1">
          <mxGeometry y="220" width="1370" height="1040" as="geometry" />
        </mxCell>
        <mxCell id="klwGeNsfM9cUBa_eAm7o-21" value="Yes" style="edgeStyle=orthogonalEdgeStyle;rounded=0;orthogonalLoop=1;jettySize=auto;html=1;" parent="klwGeNsfM9cUBa_eAm7o-3" source="WIyWlLk6GJQsqaUBKTNV-6" target="klwGeNsfM9cUBa_eAm7o-16" edge="1">
          <mxGeometry relative="1" as="geometry" />
        </mxCell>
        <mxCell id="klwGeNsfM9cUBa_eAm7o-26" value="No" style="edgeStyle=orthogonalEdgeStyle;rounded=0;orthogonalLoop=1;jettySize=auto;html=1;" parent="klwGeNsfM9cUBa_eAm7o-3" source="WIyWlLk6GJQsqaUBKTNV-6" target="klwGeNsfM9cUBa_eAm7o-22" edge="1">
          <mxGeometry relative="1" as="geometry" />
        </mxCell>
        <mxCell id="WIyWlLk6GJQsqaUBKTNV-6" value="Inside Macau？" style="rhombus;whiteSpace=wrap;html=1;shadow=0;fontFamily=Helvetica;fontSize=12;align=center;strokeWidth=1;spacing=6;spacingTop=-4;fillColor=#4d90fe;fontColor=#ffffff;strokeColor=#006EAF;" parent="klwGeNsfM9cUBa_eAm7o-3" vertex="1">
          <mxGeometry x="50" y="31" width="119.5" height="50" as="geometry" />
        </mxCell>
        <mxCell id="klwGeNsfM9cUBa_eAm7o-27" value="" style="edgeStyle=orthogonalEdgeStyle;rounded=0;orthogonalLoop=1;jettySize=auto;html=1;" parent="klwGeNsfM9cUBa_eAm7o-3" source="klwGeNsfM9cUBa_eAm7o-16" target="klwGeNsfM9cUBa_eAm7o-23" edge="1">
          <mxGeometry relative="1" as="geometry" />
        </mxCell>
        <mxCell id="klwGeNsfM9cUBa_eAm7o-28" value="No" style="edgeLabel;html=1;align=center;verticalAlign=middle;resizable=0;points=[];" parent="klwGeNsfM9cUBa_eAm7o-27" vertex="1" connectable="0">
          <mxGeometry x="-0.067" y="1" relative="1" as="geometry">
            <mxPoint as="offset" />
          </mxGeometry>
        </mxCell>
        <mxCell id="klwGeNsfM9cUBa_eAm7o-16" value="Inside Property？" style="rhombus;whiteSpace=wrap;html=1;shadow=0;fontFamily=Helvetica;fontSize=12;align=center;strokeWidth=1;spacing=6;spacingTop=-4;fillColor=#4d90fe;fontColor=#ffffff;strokeColor=#006EAF;" parent="klwGeNsfM9cUBa_eAm7o-3" vertex="1">
          <mxGeometry x="203" y="30" width="110" height="51" as="geometry" />
        </mxCell>
        <mxCell id="klwGeNsfM9cUBa_eAm7o-100" style="edgeStyle=orthogonalEdgeStyle;rounded=0;orthogonalLoop=1;jettySize=auto;html=1;entryX=0;entryY=0.5;entryDx=0;entryDy=0;entryPerimeter=0;" parent="klwGeNsfM9cUBa_eAm7o-3" source="klwGeNsfM9cUBa_eAm7o-22" target="klwGeNsfM9cUBa_eAm7o-89" edge="1">
          <mxGeometry relative="1" as="geometry">
            <Array as="points">
              <mxPoint x="110" y="975" />
            </Array>
          </mxGeometry>
        </mxCell>
        <mxCell id="klwGeNsfM9cUBa_eAm7o-22" value="Not allow to access Host Mobile" style="rounded=1;whiteSpace=wrap;html=1;absoluteArcSize=1;arcSize=14;strokeWidth=2;fillColor=#4d90fe;strokeColor=#006EAF;fontColor=#ffffff;" parent="klwGeNsfM9cUBa_eAm7o-3" vertex="1">
          <mxGeometry x="59.75" y="433" width="100" height="50" as="geometry" />
        </mxCell>
        <mxCell id="klwGeNsfM9cUBa_eAm7o-102" value="" style="edgeStyle=orthogonalEdgeStyle;rounded=0;orthogonalLoop=1;jettySize=auto;html=1;endArrow=none;endFill=0;" parent="klwGeNsfM9cUBa_eAm7o-3" source="klwGeNsfM9cUBa_eAm7o-23" edge="1">
          <mxGeometry relative="1" as="geometry">
            <mxPoint x="258.0526315789475" y="977" as="targetPoint" />
          </mxGeometry>
        </mxCell>
        <mxCell id="klwGeNsfM9cUBa_eAm7o-23" value="Not allow to access Potential Patron" style="rounded=1;whiteSpace=wrap;html=1;absoluteArcSize=1;arcSize=14;strokeWidth=2;fillColor=#4d90fe;fontColor=#ffffff;strokeColor=#006EAF;" parent="klwGeNsfM9cUBa_eAm7o-3" vertex="1">
          <mxGeometry x="209" y="436" width="99" height="50" as="geometry" />
        </mxCell>
        <mxCell id="klwGeNsfM9cUBa_eAm7o-34" value="Yes" style="edgeStyle=orthogonalEdgeStyle;rounded=0;orthogonalLoop=1;jettySize=auto;html=1;entryX=0;entryY=0.5;entryDx=0;entryDy=0;exitX=1;exitY=0.5;exitDx=0;exitDy=0;" parent="klwGeNsfM9cUBa_eAm7o-3" source="klwGeNsfM9cUBa_eAm7o-31" target="klwGeNsfM9cUBa_eAm7o-32" edge="1">
          <mxGeometry relative="1" as="geometry">
            <mxPoint x="475" y="55.5" as="sourcePoint" />
            <mxPoint x="507" y="55.5" as="targetPoint" />
          </mxGeometry>
        </mxCell>
        <mxCell id="klwGeNsfM9cUBa_eAm7o-37" value="No" style="edgeStyle=orthogonalEdgeStyle;rounded=0;orthogonalLoop=1;jettySize=auto;html=1;" parent="klwGeNsfM9cUBa_eAm7o-3" source="klwGeNsfM9cUBa_eAm7o-31" target="klwGeNsfM9cUBa_eAm7o-36" edge="1">
          <mxGeometry relative="1" as="geometry" />
        </mxCell>
        <mxCell id="klwGeNsfM9cUBa_eAm7o-31" value="Patron is a Member?" style="rhombus;whiteSpace=wrap;html=1;shadow=0;fontFamily=Helvetica;fontSize=12;align=center;strokeWidth=1;spacing=6;spacingTop=-4;fillColor=#4d90fe;fontColor=#ffffff;strokeColor=#006EAF;" parent="klwGeNsfM9cUBa_eAm7o-3" vertex="1">
          <mxGeometry x="370" y="30" width="110" height="55" as="geometry" />
        </mxCell>
        <mxCell id="klwGeNsfM9cUBa_eAm7o-47" value="" style="edgeStyle=orthogonalEdgeStyle;rounded=0;orthogonalLoop=1;jettySize=auto;html=1;" parent="klwGeNsfM9cUBa_eAm7o-3" source="klwGeNsfM9cUBa_eAm7o-32" target="klwGeNsfM9cUBa_eAm7o-44" edge="1">
          <mxGeometry relative="1" as="geometry" />
        </mxCell>
        <mxCell id="klwGeNsfM9cUBa_eAm7o-49" value="Y" style="edgeLabel;html=1;align=left;verticalAlign=middle;resizable=0;points=[];" parent="klwGeNsfM9cUBa_eAm7o-47" vertex="1" connectable="0">
          <mxGeometry x="-0.5135" y="-2" relative="1" as="geometry">
            <mxPoint x="-15" y="-2" as="offset" />
          </mxGeometry>
        </mxCell>
        <mxCell id="95S1D5gs3nLr7--HT-yM-0" value="Yes" style="edgeLabel;html=1;align=center;verticalAlign=middle;resizable=0;points=[];" parent="klwGeNsfM9cUBa_eAm7o-47" vertex="1" connectable="0">
          <mxGeometry x="-0.7345" y="2" relative="1" as="geometry">
            <mxPoint as="offset" />
          </mxGeometry>
        </mxCell>
        <mxCell id="6y5OVStyXJfQSKZEXA0N-159" style="edgeStyle=orthogonalEdgeStyle;rounded=0;orthogonalLoop=1;jettySize=auto;html=1;entryX=0.75;entryY=0;entryDx=0;entryDy=0;endArrow=none;endFill=0;" edge="1" parent="klwGeNsfM9cUBa_eAm7o-3" source="klwGeNsfM9cUBa_eAm7o-32" target="klwGeNsfM9cUBa_eAm7o-36">
          <mxGeometry relative="1" as="geometry">
            <Array as="points">
              <mxPoint x="577" y="200" />
              <mxPoint x="425" y="200" />
              <mxPoint x="425" y="232" />
            </Array>
          </mxGeometry>
        </mxCell>
        <mxCell id="6y5OVStyXJfQSKZEXA0N-160" value="No" style="edgeLabel;html=1;align=center;verticalAlign=middle;resizable=0;points=[];" vertex="1" connectable="0" parent="6y5OVStyXJfQSKZEXA0N-159">
          <mxGeometry x="-0.7118" relative="1" as="geometry">
            <mxPoint as="offset" />
          </mxGeometry>
        </mxCell>
        <mxCell id="klwGeNsfM9cUBa_eAm7o-32" value="Patron currently playing at slot？" style="rhombus;whiteSpace=wrap;html=1;shadow=0;fontFamily=Helvetica;fontSize=12;align=center;strokeWidth=1;spacing=6;spacingTop=-4;fillColor=#4d90fe;fontColor=#ffffff;strokeColor=#006EAF;" parent="klwGeNsfM9cUBa_eAm7o-3" vertex="1">
          <mxGeometry x="517" y="28" width="120" height="60" as="geometry" />
        </mxCell>
        <mxCell id="6y5OVStyXJfQSKZEXA0N-177" style="edgeStyle=orthogonalEdgeStyle;rounded=0;orthogonalLoop=1;jettySize=auto;html=1;" edge="1" parent="klwGeNsfM9cUBa_eAm7o-3" source="klwGeNsfM9cUBa_eAm7o-36">
          <mxGeometry relative="1" as="geometry">
            <mxPoint x="424" y="950" as="targetPoint" />
          </mxGeometry>
        </mxCell>
        <mxCell id="klwGeNsfM9cUBa_eAm7o-36" value="Do not display such record in Potential Patron" style="rounded=1;whiteSpace=wrap;html=1;absoluteArcSize=1;arcSize=14;strokeWidth=2;fillColor=#4d90fe;fontColor=#ffffff;strokeColor=#006EAF;" parent="klwGeNsfM9cUBa_eAm7o-3" vertex="1">
          <mxGeometry x="374" y="232" width="100" height="50" as="geometry" />
        </mxCell>
        <mxCell id="6y5OVStyXJfQSKZEXA0N-151" value="" style="edgeStyle=orthogonalEdgeStyle;rounded=0;orthogonalLoop=1;jettySize=auto;html=1;" edge="1" parent="klwGeNsfM9cUBa_eAm7o-3" source="klwGeNsfM9cUBa_eAm7o-44" target="v9JNbprJfih71NEvu1Gb-3">
          <mxGeometry relative="1" as="geometry" />
        </mxCell>
        <mxCell id="6y5OVStyXJfQSKZEXA0N-152" value="Yes" style="edgeLabel;html=1;align=center;verticalAlign=middle;resizable=0;points=[];" vertex="1" connectable="0" parent="6y5OVStyXJfQSKZEXA0N-151">
          <mxGeometry x="-0.3526" y="2" relative="1" as="geometry">
            <mxPoint as="offset" />
          </mxGeometry>
        </mxCell>
        <mxCell id="6y5OVStyXJfQSKZEXA0N-161" style="edgeStyle=orthogonalEdgeStyle;rounded=0;orthogonalLoop=1;jettySize=auto;html=1;exitX=0.5;exitY=1;exitDx=0;exitDy=0;entryX=1;entryY=0.25;entryDx=0;entryDy=0;" edge="1" parent="klwGeNsfM9cUBa_eAm7o-3" source="klwGeNsfM9cUBa_eAm7o-44" target="klwGeNsfM9cUBa_eAm7o-36">
          <mxGeometry relative="1" as="geometry" />
        </mxCell>
        <mxCell id="6y5OVStyXJfQSKZEXA0N-162" value="No" style="edgeLabel;html=1;align=center;verticalAlign=middle;resizable=0;points=[];" vertex="1" connectable="0" parent="6y5OVStyXJfQSKZEXA0N-161">
          <mxGeometry x="-0.7581" y="1" relative="1" as="geometry">
            <mxPoint as="offset" />
          </mxGeometry>
        </mxCell>
        <mxCell id="klwGeNsfM9cUBa_eAm7o-44" value="Today‘s Gaming Points earn &amp;gt; x?" style="rhombus;whiteSpace=wrap;html=1;shadow=0;fontFamily=Helvetica;fontSize=12;align=center;strokeWidth=1;spacing=6;spacingTop=-4;fillColor=#4d90fe;fontColor=#ffffff;strokeColor=#006EAF;" parent="klwGeNsfM9cUBa_eAm7o-3" vertex="1">
          <mxGeometry x="668" y="28" width="130" height="60" as="geometry" />
        </mxCell>
        <mxCell id="6y5OVStyXJfQSKZEXA0N-170" value="" style="edgeStyle=orthogonalEdgeStyle;rounded=0;orthogonalLoop=1;jettySize=auto;html=1;" edge="1" parent="klwGeNsfM9cUBa_eAm7o-3" source="klwGeNsfM9cUBa_eAm7o-50" target="klwGeNsfM9cUBa_eAm7o-52">
          <mxGeometry relative="1" as="geometry" />
        </mxCell>
        <mxCell id="6y5OVStyXJfQSKZEXA0N-171" value="No" style="edgeLabel;html=1;align=center;verticalAlign=middle;resizable=0;points=[];" vertex="1" connectable="0" parent="6y5OVStyXJfQSKZEXA0N-170">
          <mxGeometry x="-0.0092" relative="1" as="geometry">
            <mxPoint as="offset" />
          </mxGeometry>
        </mxCell>
        <mxCell id="6y5OVStyXJfQSKZEXA0N-172" style="edgeStyle=orthogonalEdgeStyle;rounded=0;orthogonalLoop=1;jettySize=auto;html=1;exitX=0.5;exitY=1;exitDx=0;exitDy=0;entryX=0;entryY=0.5;entryDx=0;entryDy=0;" edge="1" parent="klwGeNsfM9cUBa_eAm7o-3" source="klwGeNsfM9cUBa_eAm7o-50" target="klwGeNsfM9cUBa_eAm7o-53">
          <mxGeometry relative="1" as="geometry" />
        </mxCell>
        <mxCell id="6y5OVStyXJfQSKZEXA0N-173" value="Yes" style="edgeLabel;html=1;align=center;verticalAlign=middle;resizable=0;points=[];" vertex="1" connectable="0" parent="6y5OVStyXJfQSKZEXA0N-172">
          <mxGeometry x="0.2598" relative="1" as="geometry">
            <mxPoint as="offset" />
          </mxGeometry>
        </mxCell>
        <mxCell id="klwGeNsfM9cUBa_eAm7o-50" value="Patron is non coded？" style="rhombus;whiteSpace=wrap;html=1;shadow=0;fontFamily=Helvetica;fontSize=12;align=center;strokeWidth=1;spacing=6;spacingTop=-4;fillColor=#4d90fe;fontColor=#ffffff;strokeColor=#006EAF;" parent="klwGeNsfM9cUBa_eAm7o-3" vertex="1">
          <mxGeometry x="984" y="33" width="110" height="51" as="geometry" />
        </mxCell>
        <mxCell id="klwGeNsfM9cUBa_eAm7o-57" value="" style="edgeStyle=orthogonalEdgeStyle;rounded=0;orthogonalLoop=1;jettySize=auto;html=1;" parent="klwGeNsfM9cUBa_eAm7o-3" source="klwGeNsfM9cUBa_eAm7o-52" target="klwGeNsfM9cUBa_eAm7o-53" edge="1">
          <mxGeometry relative="1" as="geometry" />
        </mxCell>
        <mxCell id="klwGeNsfM9cUBa_eAm7o-52" value="Get Patron&#39;s coded sale&#39;s team" style="rounded=1;whiteSpace=wrap;html=1;absoluteArcSize=1;arcSize=14;strokeWidth=2;fillColor=#4d90fe;fontColor=#ffffff;strokeColor=#006EAF;" parent="klwGeNsfM9cUBa_eAm7o-3" vertex="1">
          <mxGeometry x="1148" y="34" width="100" height="50" as="geometry" />
        </mxCell>
        <mxCell id="klwGeNsfM9cUBa_eAm7o-58" value="" style="edgeStyle=orthogonalEdgeStyle;rounded=0;orthogonalLoop=1;jettySize=auto;html=1;" parent="klwGeNsfM9cUBa_eAm7o-3" source="klwGeNsfM9cUBa_eAm7o-53" target="klwGeNsfM9cUBa_eAm7o-54" edge="1">
          <mxGeometry relative="1" as="geometry" />
        </mxCell>
        <mxCell id="klwGeNsfM9cUBa_eAm7o-53" value="Get Patron&#39;s Coding Type&amp;nbsp;" style="rounded=1;whiteSpace=wrap;html=1;absoluteArcSize=1;arcSize=14;strokeWidth=2;fillColor=#4d90fe;fontColor=#ffffff;strokeColor=#006EAF;" parent="klwGeNsfM9cUBa_eAm7o-3" vertex="1">
          <mxGeometry x="1148" y="116" width="100" height="50" as="geometry" />
        </mxCell>
        <mxCell id="klwGeNsfM9cUBa_eAm7o-61" value="" style="edgeStyle=orthogonalEdgeStyle;rounded=0;orthogonalLoop=1;jettySize=auto;html=1;" parent="klwGeNsfM9cUBa_eAm7o-3" source="klwGeNsfM9cUBa_eAm7o-54" target="klwGeNsfM9cUBa_eAm7o-59" edge="1">
          <mxGeometry relative="1" as="geometry" />
        </mxCell>
        <mxCell id="klwGeNsfM9cUBa_eAm7o-54" value="Check the Team x Patron Coding type mapping" style="rounded=1;whiteSpace=wrap;html=1;absoluteArcSize=1;arcSize=14;strokeWidth=2;fillColor=#4d90fe;fontColor=#ffffff;strokeColor=#006EAF;" parent="klwGeNsfM9cUBa_eAm7o-3" vertex="1">
          <mxGeometry x="1149" y="204" width="99" height="50" as="geometry" />
        </mxCell>
        <mxCell id="95S1D5gs3nLr7--HT-yM-7" value="" style="edgeStyle=orthogonalEdgeStyle;rounded=0;orthogonalLoop=1;jettySize=auto;html=1;" parent="klwGeNsfM9cUBa_eAm7o-3" source="klwGeNsfM9cUBa_eAm7o-59" target="klwGeNsfM9cUBa_eAm7o-60" edge="1">
          <mxGeometry relative="1" as="geometry" />
        </mxCell>
        <mxCell id="6y5OVStyXJfQSKZEXA0N-182" value="Yes" style="edgeLabel;html=1;align=center;verticalAlign=middle;resizable=0;points=[];" vertex="1" connectable="0" parent="95S1D5gs3nLr7--HT-yM-7">
          <mxGeometry x="-0.309" y="1" relative="1" as="geometry">
            <mxPoint as="offset" />
          </mxGeometry>
        </mxCell>
        <mxCell id="6y5OVStyXJfQSKZEXA0N-174" style="edgeStyle=orthogonalEdgeStyle;rounded=0;orthogonalLoop=1;jettySize=auto;html=1;exitX=0;exitY=0.5;exitDx=0;exitDy=0;entryX=0.5;entryY=0;entryDx=0;entryDy=0;" edge="1" parent="klwGeNsfM9cUBa_eAm7o-3" source="klwGeNsfM9cUBa_eAm7o-59" target="klwGeNsfM9cUBa_eAm7o-63">
          <mxGeometry relative="1" as="geometry" />
        </mxCell>
        <mxCell id="6y5OVStyXJfQSKZEXA0N-178" value="No" style="edgeLabel;html=1;align=center;verticalAlign=middle;resizable=0;points=[];" vertex="1" connectable="0" parent="6y5OVStyXJfQSKZEXA0N-174">
          <mxGeometry x="-0.3001" y="-1" relative="1" as="geometry">
            <mxPoint as="offset" />
          </mxGeometry>
        </mxCell>
        <mxCell id="klwGeNsfM9cUBa_eAm7o-59" value="Allow to show？" style="rhombus;whiteSpace=wrap;html=1;shadow=0;fontFamily=Helvetica;fontSize=12;align=center;strokeWidth=1;spacing=6;spacingTop=-4;fillColor=#4d90fe;fontColor=#ffffff;strokeColor=#006EAF;" parent="klwGeNsfM9cUBa_eAm7o-3" vertex="1">
          <mxGeometry x="1143.5" y="295" width="109" height="51" as="geometry" />
        </mxCell>
        <mxCell id="klwGeNsfM9cUBa_eAm7o-84" value="Yes" style="edgeStyle=orthogonalEdgeStyle;rounded=0;orthogonalLoop=1;jettySize=auto;html=1;" parent="klwGeNsfM9cUBa_eAm7o-3" source="klwGeNsfM9cUBa_eAm7o-60" target="klwGeNsfM9cUBa_eAm7o-72" edge="1">
          <mxGeometry relative="1" as="geometry" />
        </mxCell>
        <mxCell id="6y5OVStyXJfQSKZEXA0N-180" style="edgeStyle=orthogonalEdgeStyle;rounded=0;orthogonalLoop=1;jettySize=auto;html=1;entryX=1;entryY=0.5;entryDx=0;entryDy=0;" edge="1" parent="klwGeNsfM9cUBa_eAm7o-3" source="klwGeNsfM9cUBa_eAm7o-60" target="klwGeNsfM9cUBa_eAm7o-63">
          <mxGeometry relative="1" as="geometry" />
        </mxCell>
        <mxCell id="6y5OVStyXJfQSKZEXA0N-183" value="No" style="edgeLabel;html=1;align=center;verticalAlign=middle;resizable=0;points=[];" vertex="1" connectable="0" parent="6y5OVStyXJfQSKZEXA0N-180">
          <mxGeometry x="-0.1793" y="-1" relative="1" as="geometry">
            <mxPoint as="offset" />
          </mxGeometry>
        </mxCell>
        <mxCell id="klwGeNsfM9cUBa_eAm7o-60" value="User&#39;s property includes Open rating&#39;s property？" style="rhombus;whiteSpace=wrap;html=1;shadow=0;fontFamily=Helvetica;fontSize=12;align=center;strokeWidth=1;spacing=6;spacingTop=-4;fillColor=#4d90fe;fontColor=#ffffff;strokeColor=#006EAF;aspect=fixed;" parent="klwGeNsfM9cUBa_eAm7o-3" vertex="1">
          <mxGeometry x="1123" y="388" width="150" height="77.14" as="geometry" />
        </mxCell>
        <mxCell id="6y5OVStyXJfQSKZEXA0N-181" style="edgeStyle=orthogonalEdgeStyle;rounded=0;orthogonalLoop=1;jettySize=auto;html=1;endArrow=none;endFill=0;" edge="1" parent="klwGeNsfM9cUBa_eAm7o-3" source="klwGeNsfM9cUBa_eAm7o-63">
          <mxGeometry relative="1" as="geometry">
            <mxPoint x="420" y="426.56999999999994" as="targetPoint" />
          </mxGeometry>
        </mxCell>
        <mxCell id="klwGeNsfM9cUBa_eAm7o-63" value="Do not display such record in Potential Patron list" style="rounded=1;whiteSpace=wrap;html=1;absoluteArcSize=1;arcSize=14;strokeWidth=2;fillColor=#4d90fe;fontColor=#ffffff;strokeColor=#006EAF;" parent="klwGeNsfM9cUBa_eAm7o-3" vertex="1">
          <mxGeometry x="885" y="401.57" width="110" height="50" as="geometry" />
        </mxCell>
        <mxCell id="6y5OVStyXJfQSKZEXA0N-179" style="edgeStyle=orthogonalEdgeStyle;rounded=0;orthogonalLoop=1;jettySize=auto;html=1;" edge="1" parent="klwGeNsfM9cUBa_eAm7o-3" source="klwGeNsfM9cUBa_eAm7o-72" target="klwGeNsfM9cUBa_eAm7o-74">
          <mxGeometry relative="1" as="geometry" />
        </mxCell>
        <mxCell id="klwGeNsfM9cUBa_eAm7o-72" value="Display in Potential Patron list" style="rounded=1;whiteSpace=wrap;html=1;absoluteArcSize=1;arcSize=14;strokeWidth=2;fillColor=#4d90fe;fontColor=#ffffff;strokeColor=#006EAF;" parent="klwGeNsfM9cUBa_eAm7o-3" vertex="1">
          <mxGeometry x="1144" y="533" width="109" height="51" as="geometry" />
        </mxCell>
        <mxCell id="klwGeNsfM9cUBa_eAm7o-83" value="Yes" style="edgeStyle=orthogonalEdgeStyle;rounded=0;orthogonalLoop=1;jettySize=auto;html=1;" parent="klwGeNsfM9cUBa_eAm7o-3" source="klwGeNsfM9cUBa_eAm7o-74" target="klwGeNsfM9cUBa_eAm7o-75" edge="1">
          <mxGeometry x="0.0994" relative="1" as="geometry">
            <mxPoint as="offset" />
          </mxGeometry>
        </mxCell>
        <mxCell id="klwGeNsfM9cUBa_eAm7o-88" value="No" style="edgeStyle=orthogonalEdgeStyle;rounded=0;orthogonalLoop=1;jettySize=auto;html=1;" parent="klwGeNsfM9cUBa_eAm7o-3" source="klwGeNsfM9cUBa_eAm7o-74" target="klwGeNsfM9cUBa_eAm7o-77" edge="1">
          <mxGeometry x="-0.4543" relative="1" as="geometry">
            <mxPoint as="offset" />
          </mxGeometry>
        </mxCell>
        <mxCell id="klwGeNsfM9cUBa_eAm7o-74" value="Patron has booking &lt;br&gt;check-in date&amp;lt;=today &amp;amp; check-out date&amp;gt;today?" style="rhombus;whiteSpace=wrap;html=1;shadow=0;fontFamily=Helvetica;fontSize=12;align=center;strokeWidth=1;spacing=6;spacingTop=-4;fillColor=#4d90fe;fontColor=#ffffff;strokeColor=#006EAF;" parent="klwGeNsfM9cUBa_eAm7o-3" vertex="1">
          <mxGeometry x="1120.5" y="655" width="156.5" height="100" as="geometry" />
        </mxCell>
        <mxCell id="klwGeNsfM9cUBa_eAm7o-85" value="" style="edgeStyle=orthogonalEdgeStyle;rounded=0;orthogonalLoop=1;jettySize=auto;html=1;" parent="klwGeNsfM9cUBa_eAm7o-3" source="klwGeNsfM9cUBa_eAm7o-75" target="klwGeNsfM9cUBa_eAm7o-76" edge="1">
          <mxGeometry relative="1" as="geometry" />
        </mxCell>
        <mxCell id="95S1D5gs3nLr7--HT-yM-2" value="Yes" style="edgeLabel;html=1;align=center;verticalAlign=middle;resizable=0;points=[];" parent="klwGeNsfM9cUBa_eAm7o-85" vertex="1" connectable="0">
          <mxGeometry x="-0.4321" y="2" relative="1" as="geometry">
            <mxPoint as="offset" />
          </mxGeometry>
        </mxCell>
        <mxCell id="klwGeNsfM9cUBa_eAm7o-87" value="No" style="edgeStyle=orthogonalEdgeStyle;rounded=0;orthogonalLoop=1;jettySize=auto;html=1;" parent="klwGeNsfM9cUBa_eAm7o-3" source="klwGeNsfM9cUBa_eAm7o-75" target="klwGeNsfM9cUBa_eAm7o-77" edge="1">
          <mxGeometry x="-0.0588" relative="1" as="geometry">
            <mxPoint as="offset" />
          </mxGeometry>
        </mxCell>
        <mxCell id="klwGeNsfM9cUBa_eAm7o-75" value="Booking Status = Reserved or &lt;br&gt;Checked in?" style="rhombus;whiteSpace=wrap;html=1;shadow=0;fontFamily=Helvetica;fontSize=12;align=center;strokeWidth=1;spacing=6;spacingTop=-4;fillColor=#4d90fe;fontColor=#ffffff;strokeColor=#006EAF;" parent="klwGeNsfM9cUBa_eAm7o-3" vertex="1">
          <mxGeometry x="1122" y="824" width="155" height="79" as="geometry" />
        </mxCell>
        <mxCell id="6y5OVStyXJfQSKZEXA0N-186" style="edgeStyle=orthogonalEdgeStyle;rounded=0;orthogonalLoop=1;jettySize=auto;html=1;entryX=1;entryY=0.5;entryDx=0;entryDy=0;entryPerimeter=0;" edge="1" parent="klwGeNsfM9cUBa_eAm7o-3" source="klwGeNsfM9cUBa_eAm7o-76" target="klwGeNsfM9cUBa_eAm7o-89">
          <mxGeometry relative="1" as="geometry" />
        </mxCell>
        <mxCell id="klwGeNsfM9cUBa_eAm7o-76" value="Display as &quot;Lodger&quot;" style="rounded=1;whiteSpace=wrap;html=1;absoluteArcSize=1;arcSize=14;strokeWidth=2;fillColor=#4d90fe;fontColor=#ffffff;strokeColor=#006EAF;" parent="klwGeNsfM9cUBa_eAm7o-3" vertex="1">
          <mxGeometry x="1143.5" y="950" width="112" height="50" as="geometry" />
        </mxCell>
        <mxCell id="klwGeNsfM9cUBa_eAm7o-99" value="" style="edgeStyle=orthogonalEdgeStyle;rounded=0;orthogonalLoop=1;jettySize=auto;html=1;endArrow=none;endFill=0;" parent="klwGeNsfM9cUBa_eAm7o-3" edge="1">
          <mxGeometry relative="1" as="geometry">
            <mxPoint x="425" y="867" as="targetPoint" />
            <mxPoint x="775" y="864.4827586206898" as="sourcePoint" />
            <Array as="points">
              <mxPoint x="775" y="867" />
              <mxPoint x="425" y="867" />
            </Array>
          </mxGeometry>
        </mxCell>
        <mxCell id="klwGeNsfM9cUBa_eAm7o-77" value="Display as &quot;Non-Lodger&quot;" style="rounded=1;whiteSpace=wrap;html=1;absoluteArcSize=1;arcSize=14;strokeWidth=2;fillColor=#4d90fe;fontColor=#ffffff;strokeColor=#006EAF;" parent="klwGeNsfM9cUBa_eAm7o-3" vertex="1">
          <mxGeometry x="775" y="841.5" width="110" height="50" as="geometry" />
        </mxCell>
        <mxCell id="klwGeNsfM9cUBa_eAm7o-89" value="END" style="strokeWidth=2;html=1;shape=mxgraph.flowchart.terminator;whiteSpace=wrap;fillColor=#e51400;fontColor=#ffffff;strokeColor=#B20000;" parent="klwGeNsfM9cUBa_eAm7o-3" vertex="1">
          <mxGeometry x="395" y="952" width="60" height="46.5" as="geometry" />
        </mxCell>
        <mxCell id="6y5OVStyXJfQSKZEXA0N-185" style="edgeStyle=orthogonalEdgeStyle;rounded=0;orthogonalLoop=1;jettySize=auto;html=1;entryX=0.308;entryY=0.152;entryDx=0;entryDy=0;entryPerimeter=0;endArrow=none;endFill=0;dashed=1;" edge="1" parent="klwGeNsfM9cUBa_eAm7o-3" source="klwGeNsfM9cUBa_eAm7o-107" target="klwGeNsfM9cUBa_eAm7o-75">
          <mxGeometry relative="1" as="geometry">
            <Array as="points">
              <mxPoint x="1170" y="783" />
            </Array>
          </mxGeometry>
        </mxCell>
        <mxCell id="klwGeNsfM9cUBa_eAm7o-107" value="&lt;div style=&quot;text-align: left;&quot;&gt;&lt;b style=&quot;background-color: initial;&quot;&gt;Lodger:&lt;/b&gt;&lt;/div&gt;&lt;div style=&quot;text-align: left;&quot;&gt;&lt;span style=&quot;background-color: initial;&quot;&gt;LodgeStatus=true&lt;/span&gt;&lt;/div&gt;&lt;b&gt;&lt;div style=&quot;text-align: left;&quot;&gt;&lt;b style=&quot;background-color: initial;&quot;&gt;Non-Lodger:&lt;/b&gt;&lt;/div&gt;&lt;/b&gt;&lt;div style=&quot;text-align: left;&quot;&gt;&lt;span style=&quot;background-color: initial;&quot;&gt;LodgeStatus=false&lt;/span&gt;&lt;/div&gt;" style="strokeWidth=1;html=1;shape=mxgraph.flowchart.document2;whiteSpace=wrap;size=0.25;fillColor=#fff2cc;strokeColor=#d6b656;" parent="klwGeNsfM9cUBa_eAm7o-3" vertex="1">
          <mxGeometry x="947" y="740" width="120" height="86" as="geometry" />
        </mxCell>
        <mxCell id="6y5OVStyXJfQSKZEXA0N-184" style="edgeStyle=orthogonalEdgeStyle;rounded=0;orthogonalLoop=1;jettySize=auto;html=1;entryX=0;entryY=0.5;entryDx=0;entryDy=0;endArrow=none;endFill=0;dashed=1;" edge="1" parent="klwGeNsfM9cUBa_eAm7o-3" source="klwGeNsfM9cUBa_eAm7o-176" target="klwGeNsfM9cUBa_eAm7o-54">
          <mxGeometry relative="1" as="geometry" />
        </mxCell>
        <mxCell id="klwGeNsfM9cUBa_eAm7o-176" value="&lt;div style=&quot;text-align: left;&quot;&gt;&lt;span style=&quot;background-color: initial;&quot;&gt;&lt;b&gt;Coding Type Mapping:&lt;/b&gt;&lt;/span&gt;&lt;/div&gt;&lt;div style=&quot;text-align: left;&quot;&gt;&lt;span style=&quot;background-color: initial;&quot;&gt;1.Active&lt;/span&gt;&lt;/div&gt;&lt;div style=&quot;text-align: left;&quot;&gt;&lt;span style=&quot;background-color: initial;&quot;&gt;2.Inactive&lt;/span&gt;&lt;/div&gt;&lt;div style=&quot;text-align: left;&quot;&gt;&lt;span style=&quot;background-color: initial;&quot;&gt;3.Overdue&lt;/span&gt;&lt;/div&gt;&lt;div style=&quot;text-align: left;&quot;&gt;&lt;span style=&quot;background-color: initial;&quot;&gt;4.Golden&lt;/span&gt;&lt;/div&gt;" style="strokeWidth=1;html=1;shape=mxgraph.flowchart.document2;whiteSpace=wrap;size=0.25;fillColor=#fff2cc;strokeColor=#d6b656;" parent="klwGeNsfM9cUBa_eAm7o-3" vertex="1">
          <mxGeometry x="960" y="184" width="140" height="90" as="geometry" />
        </mxCell>
        <mxCell id="6y5OVStyXJfQSKZEXA0N-155" style="edgeStyle=orthogonalEdgeStyle;rounded=0;orthogonalLoop=1;jettySize=auto;html=1;entryX=1;entryY=0.75;entryDx=0;entryDy=0;" edge="1" parent="klwGeNsfM9cUBa_eAm7o-3" source="v9JNbprJfih71NEvu1Gb-3" target="klwGeNsfM9cUBa_eAm7o-36">
          <mxGeometry relative="1" as="geometry">
            <Array as="points">
              <mxPoint x="892" y="270" />
            </Array>
          </mxGeometry>
        </mxCell>
        <mxCell id="6y5OVStyXJfQSKZEXA0N-156" value="Yes" style="edgeLabel;html=1;align=center;verticalAlign=middle;resizable=0;points=[];" vertex="1" connectable="0" parent="6y5OVStyXJfQSKZEXA0N-155">
          <mxGeometry x="-0.782" y="-2" relative="1" as="geometry">
            <mxPoint as="offset" />
          </mxGeometry>
        </mxCell>
        <mxCell id="6y5OVStyXJfQSKZEXA0N-163" value="" style="edgeStyle=orthogonalEdgeStyle;rounded=0;orthogonalLoop=1;jettySize=auto;html=1;" edge="1" parent="klwGeNsfM9cUBa_eAm7o-3" source="v9JNbprJfih71NEvu1Gb-3" target="klwGeNsfM9cUBa_eAm7o-50">
          <mxGeometry relative="1" as="geometry" />
        </mxCell>
        <mxCell id="6y5OVStyXJfQSKZEXA0N-165" value="No" style="edgeLabel;html=1;align=center;verticalAlign=middle;resizable=0;points=[];" vertex="1" connectable="0" parent="6y5OVStyXJfQSKZEXA0N-163">
          <mxGeometry x="-0.2438" y="-1" relative="1" as="geometry">
            <mxPoint as="offset" />
          </mxGeometry>
        </mxCell>
        <mxCell id="v9JNbprJfih71NEvu1Gb-3" value="Patron is VVIP？" style="rhombus;whiteSpace=wrap;html=1;shadow=0;fontFamily=Helvetica;fontSize=12;align=center;strokeWidth=1;spacing=6;spacingTop=-4;fillColor=#4d90fe;fontColor=#ffffff;strokeColor=#006EAF;" parent="klwGeNsfM9cUBa_eAm7o-3" vertex="1">
          <mxGeometry x="837" y="33" width="110" height="51" as="geometry" />
        </mxCell>
        <mxCell id="6y5OVStyXJfQSKZEXA0N-187" value="" style="rounded=0;whiteSpace=wrap;html=1;fillColor=none;dashed=1;strokeColor=#787373;strokeWidth=3;dashPattern=8 8;" vertex="1" parent="klwGeNsfM9cUBa_eAm7o-3">
          <mxGeometry x="350" y="-20" width="960" height="500" as="geometry" />
        </mxCell>
        <mxCell id="klwGeNsfM9cUBa_eAm7o-178" value="Coding Type Mapping Appendix" style="swimlane;startSize=30;strokeColor=#006EAF;fillColor=#4D90FE;fontColor=#ffffff;" parent="WIyWlLk6GJQsqaUBKTNV-1" vertex="1">
          <mxGeometry x="1430" y="600" width="440" height="1260" as="geometry" />
        </mxCell>
        <mxCell id="6y5OVStyXJfQSKZEXA0N-0" value="" style="shape=table;startSize=0;container=1;collapsible=0;childLayout=tableLayout;swimlaneLine=1;fillColor=#f5f5f5;fontColor=#333333;strokeColor=#000000;" vertex="1" parent="klwGeNsfM9cUBa_eAm7o-178">
          <mxGeometry x="20" y="68" width="400" height="1150" as="geometry" />
        </mxCell>
        <mxCell id="6y5OVStyXJfQSKZEXA0N-1" value="" style="shape=tableRow;horizontal=0;startSize=0;swimlaneHead=0;swimlaneBody=0;strokeColor=inherit;top=0;left=0;bottom=0;right=0;collapsible=0;dropTarget=0;fillColor=none;points=[[0,0.5],[1,0.5]];portConstraint=eastwest;" vertex="1" parent="6y5OVStyXJfQSKZEXA0N-0">
          <mxGeometry width="400" height="47" as="geometry" />
        </mxCell>
        <mxCell id="6y5OVStyXJfQSKZEXA0N-2" value="&lt;b&gt;Team&lt;/b&gt;" style="shape=partialRectangle;html=1;whiteSpace=wrap;connectable=0;overflow=hidden;top=1;left=1;bottom=1;right=1;pointerEvents=1;fillColor=#e1d5e7;strokeColor=default;fillStyle=auto;strokeWidth=1;" vertex="1" parent="6y5OVStyXJfQSKZEXA0N-1">
          <mxGeometry width="160" height="47" as="geometry">
            <mxRectangle width="160" height="47" as="alternateBounds" />
          </mxGeometry>
        </mxCell>
        <mxCell id="6y5OVStyXJfQSKZEXA0N-3" value="&lt;b&gt;Active&lt;/b&gt;" style="shape=partialRectangle;html=1;whiteSpace=wrap;connectable=0;overflow=hidden;top=1;left=1;bottom=1;right=1;pointerEvents=1;fillColor=#e1d5e7;strokeColor=default;fillStyle=auto;strokeWidth=1;" vertex="1" parent="6y5OVStyXJfQSKZEXA0N-1">
          <mxGeometry x="160" width="60" height="47" as="geometry">
            <mxRectangle width="60" height="47" as="alternateBounds" />
          </mxGeometry>
        </mxCell>
        <mxCell id="6y5OVStyXJfQSKZEXA0N-4" value="&lt;b&gt;Inactive&lt;/b&gt;" style="shape=partialRectangle;html=1;whiteSpace=wrap;connectable=0;strokeColor=#000000;overflow=hidden;fillColor=#e1d5e7;top=1;left=1;bottom=1;right=1;pointerEvents=1;" vertex="1" parent="6y5OVStyXJfQSKZEXA0N-1">
          <mxGeometry x="220" width="60" height="47" as="geometry">
            <mxRectangle width="60" height="47" as="alternateBounds" />
          </mxGeometry>
        </mxCell>
        <mxCell id="6y5OVStyXJfQSKZEXA0N-5" value="&lt;b&gt;Overdue&lt;/b&gt;" style="shape=partialRectangle;html=1;whiteSpace=wrap;connectable=0;strokeColor=#000000;overflow=hidden;fillColor=#e1d5e7;top=1;left=1;bottom=1;right=1;pointerEvents=1;" vertex="1" parent="6y5OVStyXJfQSKZEXA0N-1">
          <mxGeometry x="280" width="60" height="47" as="geometry">
            <mxRectangle width="60" height="47" as="alternateBounds" />
          </mxGeometry>
        </mxCell>
        <mxCell id="6y5OVStyXJfQSKZEXA0N-6" value="&lt;b&gt;Golden&lt;/b&gt;" style="shape=partialRectangle;html=1;whiteSpace=wrap;connectable=0;strokeColor=#000000;overflow=hidden;fillColor=#e1d5e7;top=1;left=1;bottom=1;right=1;pointerEvents=1;" vertex="1" parent="6y5OVStyXJfQSKZEXA0N-1">
          <mxGeometry x="340" width="60" height="47" as="geometry">
            <mxRectangle width="60" height="47" as="alternateBounds" />
          </mxGeometry>
        </mxCell>
        <mxCell id="6y5OVStyXJfQSKZEXA0N-7" value="" style="shape=tableRow;horizontal=0;startSize=0;swimlaneHead=0;swimlaneBody=0;strokeColor=inherit;top=0;left=0;bottom=0;right=0;collapsible=0;dropTarget=0;fillColor=none;points=[[0,0.5],[1,0.5]];portConstraint=eastwest;" vertex="1" parent="6y5OVStyXJfQSKZEXA0N-0">
          <mxGeometry y="47" width="400" height="45" as="geometry" />
        </mxCell>
        <mxCell id="6y5OVStyXJfQSKZEXA0N-8" value="&amp;nbsp;General@SC" style="shape=partialRectangle;html=1;whiteSpace=wrap;connectable=0;strokeColor=inherit;overflow=hidden;fillColor=none;top=0;left=0;bottom=0;right=0;pointerEvents=1;align=left;" vertex="1" parent="6y5OVStyXJfQSKZEXA0N-7">
          <mxGeometry width="160" height="45" as="geometry">
            <mxRectangle width="160" height="45" as="alternateBounds" />
          </mxGeometry>
        </mxCell>
        <mxCell id="6y5OVStyXJfQSKZEXA0N-9" value="No" style="shape=partialRectangle;html=1;whiteSpace=wrap;connectable=0;strokeColor=inherit;overflow=hidden;fillColor=none;top=0;left=0;bottom=0;right=0;pointerEvents=1;" vertex="1" parent="6y5OVStyXJfQSKZEXA0N-7">
          <mxGeometry x="160" width="60" height="45" as="geometry">
            <mxRectangle width="60" height="45" as="alternateBounds" />
          </mxGeometry>
        </mxCell>
        <mxCell id="6y5OVStyXJfQSKZEXA0N-10" value="No" style="shape=partialRectangle;html=1;whiteSpace=wrap;connectable=0;strokeColor=inherit;overflow=hidden;fillColor=none;top=0;left=0;bottom=0;right=0;pointerEvents=1;" vertex="1" parent="6y5OVStyXJfQSKZEXA0N-7">
          <mxGeometry x="220" width="60" height="45" as="geometry">
            <mxRectangle width="60" height="45" as="alternateBounds" />
          </mxGeometry>
        </mxCell>
        <mxCell id="6y5OVStyXJfQSKZEXA0N-11" value="No" style="shape=partialRectangle;html=1;whiteSpace=wrap;connectable=0;strokeColor=inherit;overflow=hidden;fillColor=none;top=0;left=0;bottom=0;right=0;pointerEvents=1;" vertex="1" parent="6y5OVStyXJfQSKZEXA0N-7">
          <mxGeometry x="280" width="60" height="45" as="geometry">
            <mxRectangle width="60" height="45" as="alternateBounds" />
          </mxGeometry>
        </mxCell>
        <mxCell id="6y5OVStyXJfQSKZEXA0N-12" value="No" style="shape=partialRectangle;html=1;whiteSpace=wrap;connectable=0;strokeColor=inherit;overflow=hidden;fillColor=none;top=0;left=0;bottom=0;right=0;pointerEvents=1;" vertex="1" parent="6y5OVStyXJfQSKZEXA0N-7">
          <mxGeometry x="340" width="60" height="45" as="geometry">
            <mxRectangle width="60" height="45" as="alternateBounds" />
          </mxGeometry>
        </mxCell>
        <mxCell id="6y5OVStyXJfQSKZEXA0N-13" value="" style="shape=tableRow;horizontal=0;startSize=0;swimlaneHead=0;swimlaneBody=0;strokeColor=inherit;top=0;left=0;bottom=0;right=0;collapsible=0;dropTarget=0;fillColor=none;points=[[0,0.5],[1,0.5]];portConstraint=eastwest;" vertex="1" parent="6y5OVStyXJfQSKZEXA0N-0">
          <mxGeometry y="92" width="400" height="46" as="geometry" />
        </mxCell>
        <mxCell id="6y5OVStyXJfQSKZEXA0N-14" value="&amp;nbsp;GloablSlot@SC" style="shape=partialRectangle;html=1;whiteSpace=wrap;connectable=0;strokeColor=inherit;overflow=hidden;fillColor=none;top=0;left=0;bottom=0;right=0;pointerEvents=1;align=left;" vertex="1" parent="6y5OVStyXJfQSKZEXA0N-13">
          <mxGeometry width="160" height="46" as="geometry">
            <mxRectangle width="160" height="46" as="alternateBounds" />
          </mxGeometry>
        </mxCell>
        <mxCell id="6y5OVStyXJfQSKZEXA0N-15" value="No" style="shape=partialRectangle;html=1;whiteSpace=wrap;connectable=0;strokeColor=inherit;overflow=hidden;fillColor=none;top=0;left=0;bottom=0;right=0;pointerEvents=1;" vertex="1" parent="6y5OVStyXJfQSKZEXA0N-13">
          <mxGeometry x="160" width="60" height="46" as="geometry">
            <mxRectangle width="60" height="46" as="alternateBounds" />
          </mxGeometry>
        </mxCell>
        <mxCell id="6y5OVStyXJfQSKZEXA0N-16" value="Yes" style="shape=partialRectangle;html=1;whiteSpace=wrap;connectable=0;strokeColor=inherit;overflow=hidden;fillColor=none;top=0;left=0;bottom=0;right=0;pointerEvents=1;" vertex="1" parent="6y5OVStyXJfQSKZEXA0N-13">
          <mxGeometry x="220" width="60" height="46" as="geometry">
            <mxRectangle width="60" height="46" as="alternateBounds" />
          </mxGeometry>
        </mxCell>
        <mxCell id="6y5OVStyXJfQSKZEXA0N-17" value="Yes" style="shape=partialRectangle;html=1;whiteSpace=wrap;connectable=0;strokeColor=inherit;overflow=hidden;fillColor=none;top=0;left=0;bottom=0;right=0;pointerEvents=1;" vertex="1" parent="6y5OVStyXJfQSKZEXA0N-13">
          <mxGeometry x="280" width="60" height="46" as="geometry">
            <mxRectangle width="60" height="46" as="alternateBounds" />
          </mxGeometry>
        </mxCell>
        <mxCell id="6y5OVStyXJfQSKZEXA0N-18" value="No" style="shape=partialRectangle;html=1;whiteSpace=wrap;connectable=0;strokeColor=inherit;overflow=hidden;fillColor=none;top=0;left=0;bottom=0;right=0;pointerEvents=1;" vertex="1" parent="6y5OVStyXJfQSKZEXA0N-13">
          <mxGeometry x="340" width="60" height="46" as="geometry">
            <mxRectangle width="60" height="46" as="alternateBounds" />
          </mxGeometry>
        </mxCell>
        <mxCell id="6y5OVStyXJfQSKZEXA0N-19" value="" style="shape=tableRow;horizontal=0;startSize=0;swimlaneHead=0;swimlaneBody=0;strokeColor=inherit;top=0;left=0;bottom=0;right=0;collapsible=0;dropTarget=0;fillColor=none;points=[[0,0.5],[1,0.5]];portConstraint=eastwest;" vertex="1" parent="6y5OVStyXJfQSKZEXA0N-0">
          <mxGeometry y="138" width="400" height="45" as="geometry" />
        </mxCell>
        <mxCell id="6y5OVStyXJfQSKZEXA0N-20" value="&amp;nbsp;MDAsia@SC" style="shape=partialRectangle;html=1;whiteSpace=wrap;connectable=0;strokeColor=inherit;overflow=hidden;fillColor=none;top=0;left=0;bottom=0;right=0;pointerEvents=1;align=left;" vertex="1" parent="6y5OVStyXJfQSKZEXA0N-19">
          <mxGeometry width="160" height="45" as="geometry">
            <mxRectangle width="160" height="45" as="alternateBounds" />
          </mxGeometry>
        </mxCell>
        <mxCell id="6y5OVStyXJfQSKZEXA0N-21" value="No" style="shape=partialRectangle;html=1;whiteSpace=wrap;connectable=0;strokeColor=inherit;overflow=hidden;fillColor=none;top=0;left=0;bottom=0;right=0;pointerEvents=1;" vertex="1" parent="6y5OVStyXJfQSKZEXA0N-19">
          <mxGeometry x="160" width="60" height="45" as="geometry">
            <mxRectangle width="60" height="45" as="alternateBounds" />
          </mxGeometry>
        </mxCell>
        <mxCell id="6y5OVStyXJfQSKZEXA0N-22" value="Yes" style="shape=partialRectangle;html=1;whiteSpace=wrap;connectable=0;strokeColor=inherit;overflow=hidden;fillColor=none;top=0;left=0;bottom=0;right=0;pointerEvents=1;" vertex="1" parent="6y5OVStyXJfQSKZEXA0N-19">
          <mxGeometry x="220" width="60" height="45" as="geometry">
            <mxRectangle width="60" height="45" as="alternateBounds" />
          </mxGeometry>
        </mxCell>
        <mxCell id="6y5OVStyXJfQSKZEXA0N-23" value="Yes" style="shape=partialRectangle;html=1;whiteSpace=wrap;connectable=0;strokeColor=inherit;overflow=hidden;fillColor=none;top=0;left=0;bottom=0;right=0;pointerEvents=1;" vertex="1" parent="6y5OVStyXJfQSKZEXA0N-19">
          <mxGeometry x="280" width="60" height="45" as="geometry">
            <mxRectangle width="60" height="45" as="alternateBounds" />
          </mxGeometry>
        </mxCell>
        <mxCell id="6y5OVStyXJfQSKZEXA0N-24" value="No" style="shape=partialRectangle;html=1;whiteSpace=wrap;connectable=0;strokeColor=inherit;overflow=hidden;fillColor=none;top=0;left=0;bottom=0;right=0;pointerEvents=1;" vertex="1" parent="6y5OVStyXJfQSKZEXA0N-19">
          <mxGeometry x="340" width="60" height="45" as="geometry">
            <mxRectangle width="60" height="45" as="alternateBounds" />
          </mxGeometry>
        </mxCell>
        <mxCell id="6y5OVStyXJfQSKZEXA0N-25" value="" style="shape=tableRow;horizontal=0;startSize=0;swimlaneHead=0;swimlaneBody=0;strokeColor=inherit;top=0;left=0;bottom=0;right=0;collapsible=0;dropTarget=0;fillColor=none;points=[[0,0.5],[1,0.5]];portConstraint=eastwest;" vertex="1" parent="6y5OVStyXJfQSKZEXA0N-0">
          <mxGeometry y="183" width="400" height="47" as="geometry" />
        </mxCell>
        <mxCell id="6y5OVStyXJfQSKZEXA0N-26" value="&amp;nbsp;MDNonAsia@SC" style="shape=partialRectangle;html=1;whiteSpace=wrap;connectable=0;strokeColor=inherit;overflow=hidden;fillColor=none;top=0;left=0;bottom=0;right=0;pointerEvents=1;align=left;" vertex="1" parent="6y5OVStyXJfQSKZEXA0N-25">
          <mxGeometry width="160" height="47" as="geometry">
            <mxRectangle width="160" height="47" as="alternateBounds" />
          </mxGeometry>
        </mxCell>
        <mxCell id="6y5OVStyXJfQSKZEXA0N-27" value="No" style="shape=partialRectangle;html=1;whiteSpace=wrap;connectable=0;strokeColor=inherit;overflow=hidden;fillColor=none;top=0;left=0;bottom=0;right=0;pointerEvents=1;" vertex="1" parent="6y5OVStyXJfQSKZEXA0N-25">
          <mxGeometry x="160" width="60" height="47" as="geometry">
            <mxRectangle width="60" height="47" as="alternateBounds" />
          </mxGeometry>
        </mxCell>
        <mxCell id="6y5OVStyXJfQSKZEXA0N-28" value="Yes" style="shape=partialRectangle;html=1;whiteSpace=wrap;connectable=0;strokeColor=inherit;overflow=hidden;fillColor=none;top=0;left=0;bottom=0;right=0;pointerEvents=1;" vertex="1" parent="6y5OVStyXJfQSKZEXA0N-25">
          <mxGeometry x="220" width="60" height="47" as="geometry">
            <mxRectangle width="60" height="47" as="alternateBounds" />
          </mxGeometry>
        </mxCell>
        <mxCell id="6y5OVStyXJfQSKZEXA0N-29" value="Yes" style="shape=partialRectangle;html=1;whiteSpace=wrap;connectable=0;strokeColor=inherit;overflow=hidden;fillColor=none;top=0;left=0;bottom=0;right=0;pointerEvents=1;" vertex="1" parent="6y5OVStyXJfQSKZEXA0N-25">
          <mxGeometry x="280" width="60" height="47" as="geometry">
            <mxRectangle width="60" height="47" as="alternateBounds" />
          </mxGeometry>
        </mxCell>
        <mxCell id="6y5OVStyXJfQSKZEXA0N-30" value="No" style="shape=partialRectangle;html=1;whiteSpace=wrap;connectable=0;strokeColor=inherit;overflow=hidden;fillColor=none;top=0;left=0;bottom=0;right=0;pointerEvents=1;" vertex="1" parent="6y5OVStyXJfQSKZEXA0N-25">
          <mxGeometry x="340" width="60" height="47" as="geometry">
            <mxRectangle width="60" height="47" as="alternateBounds" />
          </mxGeometry>
        </mxCell>
        <mxCell id="6y5OVStyXJfQSKZEXA0N-31" value="" style="shape=tableRow;horizontal=0;startSize=0;swimlaneHead=0;swimlaneBody=0;strokeColor=inherit;top=0;left=0;bottom=0;right=0;collapsible=0;dropTarget=0;fillColor=none;points=[[0,0.5],[1,0.5]];portConstraint=eastwest;" vertex="1" parent="6y5OVStyXJfQSKZEXA0N-0">
          <mxGeometry y="230" width="400" height="47" as="geometry" />
        </mxCell>
        <mxCell id="6y5OVStyXJfQSKZEXA0N-32" value="&amp;nbsp;NoTeam" style="shape=partialRectangle;html=1;whiteSpace=wrap;connectable=0;strokeColor=inherit;overflow=hidden;fillColor=none;top=0;left=0;bottom=0;right=0;pointerEvents=1;align=left;" vertex="1" parent="6y5OVStyXJfQSKZEXA0N-31">
          <mxGeometry width="160" height="47" as="geometry">
            <mxRectangle width="160" height="47" as="alternateBounds" />
          </mxGeometry>
        </mxCell>
        <mxCell id="6y5OVStyXJfQSKZEXA0N-33" value="Yes" style="shape=partialRectangle;html=1;whiteSpace=wrap;connectable=0;strokeColor=inherit;overflow=hidden;fillColor=none;top=0;left=0;bottom=0;right=0;pointerEvents=1;" vertex="1" parent="6y5OVStyXJfQSKZEXA0N-31">
          <mxGeometry x="160" width="60" height="47" as="geometry">
            <mxRectangle width="60" height="47" as="alternateBounds" />
          </mxGeometry>
        </mxCell>
        <mxCell id="6y5OVStyXJfQSKZEXA0N-34" value="Yes" style="shape=partialRectangle;html=1;whiteSpace=wrap;connectable=0;strokeColor=inherit;overflow=hidden;fillColor=none;top=0;left=0;bottom=0;right=0;pointerEvents=1;" vertex="1" parent="6y5OVStyXJfQSKZEXA0N-31">
          <mxGeometry x="220" width="60" height="47" as="geometry">
            <mxRectangle width="60" height="47" as="alternateBounds" />
          </mxGeometry>
        </mxCell>
        <mxCell id="6y5OVStyXJfQSKZEXA0N-35" value="Yes" style="shape=partialRectangle;html=1;whiteSpace=wrap;connectable=0;strokeColor=inherit;overflow=hidden;fillColor=none;top=0;left=0;bottom=0;right=0;pointerEvents=1;" vertex="1" parent="6y5OVStyXJfQSKZEXA0N-31">
          <mxGeometry x="280" width="60" height="47" as="geometry">
            <mxRectangle width="60" height="47" as="alternateBounds" />
          </mxGeometry>
        </mxCell>
        <mxCell id="6y5OVStyXJfQSKZEXA0N-36" value="Yes" style="shape=partialRectangle;html=1;whiteSpace=wrap;connectable=0;strokeColor=inherit;overflow=hidden;fillColor=none;top=0;left=0;bottom=0;right=0;pointerEvents=1;" vertex="1" parent="6y5OVStyXJfQSKZEXA0N-31">
          <mxGeometry x="340" width="60" height="47" as="geometry">
            <mxRectangle width="60" height="47" as="alternateBounds" />
          </mxGeometry>
        </mxCell>
        <mxCell id="6y5OVStyXJfQSKZEXA0N-37" value="" style="shape=tableRow;horizontal=0;startSize=0;swimlaneHead=0;swimlaneBody=0;strokeColor=inherit;top=0;left=0;bottom=0;right=0;collapsible=0;dropTarget=0;fillColor=none;points=[[0,0.5],[1,0.5]];portConstraint=eastwest;" vertex="1" parent="6y5OVStyXJfQSKZEXA0N-0">
          <mxGeometry y="277" width="400" height="45" as="geometry" />
        </mxCell>
        <mxCell id="6y5OVStyXJfQSKZEXA0N-38" value="&amp;nbsp;PAPremiumService@SC" style="shape=partialRectangle;html=1;whiteSpace=wrap;connectable=0;strokeColor=inherit;overflow=hidden;fillColor=none;top=0;left=0;bottom=0;right=0;pointerEvents=1;align=left;" vertex="1" parent="6y5OVStyXJfQSKZEXA0N-37">
          <mxGeometry width="160" height="45" as="geometry">
            <mxRectangle width="160" height="45" as="alternateBounds" />
          </mxGeometry>
        </mxCell>
        <mxCell id="6y5OVStyXJfQSKZEXA0N-39" value="No" style="shape=partialRectangle;html=1;whiteSpace=wrap;connectable=0;strokeColor=inherit;overflow=hidden;fillColor=none;top=0;left=0;bottom=0;right=0;pointerEvents=1;" vertex="1" parent="6y5OVStyXJfQSKZEXA0N-37">
          <mxGeometry x="160" width="60" height="45" as="geometry">
            <mxRectangle width="60" height="45" as="alternateBounds" />
          </mxGeometry>
        </mxCell>
        <mxCell id="6y5OVStyXJfQSKZEXA0N-40" value="No" style="shape=partialRectangle;html=1;whiteSpace=wrap;connectable=0;strokeColor=inherit;overflow=hidden;fillColor=none;top=0;left=0;bottom=0;right=0;pointerEvents=1;" vertex="1" parent="6y5OVStyXJfQSKZEXA0N-37">
          <mxGeometry x="220" width="60" height="45" as="geometry">
            <mxRectangle width="60" height="45" as="alternateBounds" />
          </mxGeometry>
        </mxCell>
        <mxCell id="6y5OVStyXJfQSKZEXA0N-41" value="No" style="shape=partialRectangle;html=1;whiteSpace=wrap;connectable=0;strokeColor=inherit;overflow=hidden;fillColor=none;top=0;left=0;bottom=0;right=0;pointerEvents=1;" vertex="1" parent="6y5OVStyXJfQSKZEXA0N-37">
          <mxGeometry x="280" width="60" height="45" as="geometry">
            <mxRectangle width="60" height="45" as="alternateBounds" />
          </mxGeometry>
        </mxCell>
        <mxCell id="6y5OVStyXJfQSKZEXA0N-42" value="No" style="shape=partialRectangle;html=1;whiteSpace=wrap;connectable=0;strokeColor=inherit;overflow=hidden;fillColor=none;top=0;left=0;bottom=0;right=0;pointerEvents=1;" vertex="1" parent="6y5OVStyXJfQSKZEXA0N-37">
          <mxGeometry x="340" width="60" height="45" as="geometry">
            <mxRectangle width="60" height="45" as="alternateBounds" />
          </mxGeometry>
        </mxCell>
        <mxCell id="6y5OVStyXJfQSKZEXA0N-43" value="" style="shape=tableRow;horizontal=0;startSize=0;swimlaneHead=0;swimlaneBody=0;strokeColor=inherit;top=0;left=0;bottom=0;right=0;collapsible=0;dropTarget=0;fillColor=none;points=[[0,0.5],[1,0.5]];portConstraint=eastwest;" vertex="1" parent="6y5OVStyXJfQSKZEXA0N-0">
          <mxGeometry y="322" width="400" height="46" as="geometry" />
        </mxCell>
        <mxCell id="6y5OVStyXJfQSKZEXA0N-44" value="&amp;nbsp;PASlotSales@SC" style="shape=partialRectangle;html=1;whiteSpace=wrap;connectable=0;strokeColor=inherit;overflow=hidden;fillColor=none;top=0;left=0;bottom=0;right=0;pointerEvents=1;align=left;" vertex="1" parent="6y5OVStyXJfQSKZEXA0N-43">
          <mxGeometry width="160" height="46" as="geometry">
            <mxRectangle width="160" height="46" as="alternateBounds" />
          </mxGeometry>
        </mxCell>
        <mxCell id="6y5OVStyXJfQSKZEXA0N-45" value="No" style="shape=partialRectangle;html=1;whiteSpace=wrap;connectable=0;strokeColor=inherit;overflow=hidden;fillColor=none;top=0;left=0;bottom=0;right=0;pointerEvents=1;" vertex="1" parent="6y5OVStyXJfQSKZEXA0N-43">
          <mxGeometry x="160" width="60" height="46" as="geometry">
            <mxRectangle width="60" height="46" as="alternateBounds" />
          </mxGeometry>
        </mxCell>
        <mxCell id="6y5OVStyXJfQSKZEXA0N-46" value="No" style="shape=partialRectangle;html=1;whiteSpace=wrap;connectable=0;strokeColor=inherit;overflow=hidden;fillColor=none;top=0;left=0;bottom=0;right=0;pointerEvents=1;" vertex="1" parent="6y5OVStyXJfQSKZEXA0N-43">
          <mxGeometry x="220" width="60" height="46" as="geometry">
            <mxRectangle width="60" height="46" as="alternateBounds" />
          </mxGeometry>
        </mxCell>
        <mxCell id="6y5OVStyXJfQSKZEXA0N-47" value="No" style="shape=partialRectangle;html=1;whiteSpace=wrap;connectable=0;strokeColor=inherit;overflow=hidden;fillColor=none;top=0;left=0;bottom=0;right=0;pointerEvents=1;" vertex="1" parent="6y5OVStyXJfQSKZEXA0N-43">
          <mxGeometry x="280" width="60" height="46" as="geometry">
            <mxRectangle width="60" height="46" as="alternateBounds" />
          </mxGeometry>
        </mxCell>
        <mxCell id="6y5OVStyXJfQSKZEXA0N-48" value="No" style="shape=partialRectangle;html=1;whiteSpace=wrap;connectable=0;strokeColor=inherit;overflow=hidden;fillColor=none;top=0;left=0;bottom=0;right=0;pointerEvents=1;" vertex="1" parent="6y5OVStyXJfQSKZEXA0N-43">
          <mxGeometry x="340" width="60" height="46" as="geometry">
            <mxRectangle width="60" height="46" as="alternateBounds" />
          </mxGeometry>
        </mxCell>
        <mxCell id="6y5OVStyXJfQSKZEXA0N-49" value="" style="shape=tableRow;horizontal=0;startSize=0;swimlaneHead=0;swimlaneBody=0;strokeColor=inherit;top=0;left=0;bottom=0;right=0;collapsible=0;dropTarget=0;fillColor=none;points=[[0,0.5],[1,0.5]];portConstraint=eastwest;" vertex="1" parent="6y5OVStyXJfQSKZEXA0N-0">
          <mxGeometry y="368" width="400" height="47" as="geometry" />
        </mxCell>
        <mxCell id="6y5OVStyXJfQSKZEXA0N-50" value="&amp;nbsp;PATableSales@SC" style="shape=partialRectangle;html=1;whiteSpace=wrap;connectable=0;strokeColor=inherit;overflow=hidden;fillColor=none;top=0;left=0;bottom=0;right=0;pointerEvents=1;align=left;" vertex="1" parent="6y5OVStyXJfQSKZEXA0N-49">
          <mxGeometry width="160" height="47" as="geometry">
            <mxRectangle width="160" height="47" as="alternateBounds" />
          </mxGeometry>
        </mxCell>
        <mxCell id="6y5OVStyXJfQSKZEXA0N-51" value="No" style="shape=partialRectangle;html=1;whiteSpace=wrap;connectable=0;strokeColor=inherit;overflow=hidden;fillColor=none;top=0;left=0;bottom=0;right=0;pointerEvents=1;" vertex="1" parent="6y5OVStyXJfQSKZEXA0N-49">
          <mxGeometry x="160" width="60" height="47" as="geometry">
            <mxRectangle width="60" height="47" as="alternateBounds" />
          </mxGeometry>
        </mxCell>
        <mxCell id="6y5OVStyXJfQSKZEXA0N-52" value="Yes" style="shape=partialRectangle;html=1;whiteSpace=wrap;connectable=0;strokeColor=inherit;overflow=hidden;fillColor=none;top=0;left=0;bottom=0;right=0;pointerEvents=1;" vertex="1" parent="6y5OVStyXJfQSKZEXA0N-49">
          <mxGeometry x="220" width="60" height="47" as="geometry">
            <mxRectangle width="60" height="47" as="alternateBounds" />
          </mxGeometry>
        </mxCell>
        <mxCell id="6y5OVStyXJfQSKZEXA0N-53" value="Yes" style="shape=partialRectangle;html=1;whiteSpace=wrap;connectable=0;strokeColor=inherit;overflow=hidden;fillColor=none;top=0;left=0;bottom=0;right=0;pointerEvents=1;" vertex="1" parent="6y5OVStyXJfQSKZEXA0N-49">
          <mxGeometry x="280" width="60" height="47" as="geometry">
            <mxRectangle width="60" height="47" as="alternateBounds" />
          </mxGeometry>
        </mxCell>
        <mxCell id="6y5OVStyXJfQSKZEXA0N-54" value="No" style="shape=partialRectangle;html=1;whiteSpace=wrap;connectable=0;strokeColor=inherit;overflow=hidden;fillColor=none;top=0;left=0;bottom=0;right=0;pointerEvents=1;" vertex="1" parent="6y5OVStyXJfQSKZEXA0N-49">
          <mxGeometry x="340" width="60" height="47" as="geometry">
            <mxRectangle width="60" height="47" as="alternateBounds" />
          </mxGeometry>
        </mxCell>
        <mxCell id="6y5OVStyXJfQSKZEXA0N-55" value="" style="shape=tableRow;horizontal=0;startSize=0;swimlaneHead=0;swimlaneBody=0;strokeColor=inherit;top=0;left=0;bottom=0;right=0;collapsible=0;dropTarget=0;fillColor=none;points=[[0,0.5],[1,0.5]];portConstraint=eastwest;" vertex="1" parent="6y5OVStyXJfQSKZEXA0N-0">
          <mxGeometry y="415" width="400" height="45" as="geometry" />
        </mxCell>
        <mxCell id="6y5OVStyXJfQSKZEXA0N-56" value="&amp;nbsp;PLPD@SC" style="shape=partialRectangle;html=1;whiteSpace=wrap;connectable=0;strokeColor=inherit;overflow=hidden;fillColor=none;top=0;left=0;bottom=0;right=0;pointerEvents=1;align=left;" vertex="1" parent="6y5OVStyXJfQSKZEXA0N-55">
          <mxGeometry width="160" height="45" as="geometry">
            <mxRectangle width="160" height="45" as="alternateBounds" />
          </mxGeometry>
        </mxCell>
        <mxCell id="6y5OVStyXJfQSKZEXA0N-57" value="No" style="shape=partialRectangle;html=1;whiteSpace=wrap;connectable=0;strokeColor=inherit;overflow=hidden;fillColor=none;top=0;left=0;bottom=0;right=0;pointerEvents=1;" vertex="1" parent="6y5OVStyXJfQSKZEXA0N-55">
          <mxGeometry x="160" width="60" height="45" as="geometry">
            <mxRectangle width="60" height="45" as="alternateBounds" />
          </mxGeometry>
        </mxCell>
        <mxCell id="6y5OVStyXJfQSKZEXA0N-58" value="Yes" style="shape=partialRectangle;html=1;whiteSpace=wrap;connectable=0;strokeColor=inherit;overflow=hidden;fillColor=none;top=0;left=0;bottom=0;right=0;pointerEvents=1;" vertex="1" parent="6y5OVStyXJfQSKZEXA0N-55">
          <mxGeometry x="220" width="60" height="45" as="geometry">
            <mxRectangle width="60" height="45" as="alternateBounds" />
          </mxGeometry>
        </mxCell>
        <mxCell id="6y5OVStyXJfQSKZEXA0N-59" value="Yes" style="shape=partialRectangle;html=1;whiteSpace=wrap;connectable=0;strokeColor=inherit;overflow=hidden;fillColor=none;top=0;left=0;bottom=0;right=0;pointerEvents=1;" vertex="1" parent="6y5OVStyXJfQSKZEXA0N-55">
          <mxGeometry x="280" width="60" height="45" as="geometry">
            <mxRectangle width="60" height="45" as="alternateBounds" />
          </mxGeometry>
        </mxCell>
        <mxCell id="6y5OVStyXJfQSKZEXA0N-60" value="No" style="shape=partialRectangle;html=1;whiteSpace=wrap;connectable=0;strokeColor=inherit;overflow=hidden;fillColor=none;top=0;left=0;bottom=0;right=0;pointerEvents=1;" vertex="1" parent="6y5OVStyXJfQSKZEXA0N-55">
          <mxGeometry x="340" width="60" height="45" as="geometry">
            <mxRectangle width="60" height="45" as="alternateBounds" />
          </mxGeometry>
        </mxCell>
        <mxCell id="6y5OVStyXJfQSKZEXA0N-61" value="" style="shape=tableRow;horizontal=0;startSize=0;swimlaneHead=0;swimlaneBody=0;strokeColor=inherit;top=0;left=0;bottom=0;right=0;collapsible=0;dropTarget=0;fillColor=none;points=[[0,0.5],[1,0.5]];portConstraint=eastwest;" vertex="1" parent="6y5OVStyXJfQSKZEXA0N-0">
          <mxGeometry y="460" width="400" height="47" as="geometry" />
        </mxCell>
        <mxCell id="6y5OVStyXJfQSKZEXA0N-62" value="&amp;nbsp;PLPremiumService@SC" style="shape=partialRectangle;html=1;whiteSpace=wrap;connectable=0;strokeColor=inherit;overflow=hidden;fillColor=none;top=0;left=0;bottom=0;right=0;pointerEvents=1;align=left;" vertex="1" parent="6y5OVStyXJfQSKZEXA0N-61">
          <mxGeometry width="160" height="47" as="geometry">
            <mxRectangle width="160" height="47" as="alternateBounds" />
          </mxGeometry>
        </mxCell>
        <mxCell id="6y5OVStyXJfQSKZEXA0N-63" value="No" style="shape=partialRectangle;html=1;whiteSpace=wrap;connectable=0;strokeColor=inherit;overflow=hidden;fillColor=none;top=0;left=0;bottom=0;right=0;pointerEvents=1;" vertex="1" parent="6y5OVStyXJfQSKZEXA0N-61">
          <mxGeometry x="160" width="60" height="47" as="geometry">
            <mxRectangle width="60" height="47" as="alternateBounds" />
          </mxGeometry>
        </mxCell>
        <mxCell id="6y5OVStyXJfQSKZEXA0N-64" value="No" style="shape=partialRectangle;html=1;whiteSpace=wrap;connectable=0;strokeColor=inherit;overflow=hidden;fillColor=none;top=0;left=0;bottom=0;right=0;pointerEvents=1;" vertex="1" parent="6y5OVStyXJfQSKZEXA0N-61">
          <mxGeometry x="220" width="60" height="47" as="geometry">
            <mxRectangle width="60" height="47" as="alternateBounds" />
          </mxGeometry>
        </mxCell>
        <mxCell id="6y5OVStyXJfQSKZEXA0N-65" value="No" style="shape=partialRectangle;html=1;whiteSpace=wrap;connectable=0;strokeColor=inherit;overflow=hidden;fillColor=none;top=0;left=0;bottom=0;right=0;pointerEvents=1;" vertex="1" parent="6y5OVStyXJfQSKZEXA0N-61">
          <mxGeometry x="280" width="60" height="47" as="geometry">
            <mxRectangle width="60" height="47" as="alternateBounds" />
          </mxGeometry>
        </mxCell>
        <mxCell id="6y5OVStyXJfQSKZEXA0N-66" value="No" style="shape=partialRectangle;html=1;whiteSpace=wrap;connectable=0;strokeColor=inherit;overflow=hidden;fillColor=none;top=0;left=0;bottom=0;right=0;pointerEvents=1;" vertex="1" parent="6y5OVStyXJfQSKZEXA0N-61">
          <mxGeometry x="340" width="60" height="47" as="geometry">
            <mxRectangle width="60" height="47" as="alternateBounds" />
          </mxGeometry>
        </mxCell>
        <mxCell id="6y5OVStyXJfQSKZEXA0N-67" value="" style="shape=tableRow;horizontal=0;startSize=0;swimlaneHead=0;swimlaneBody=0;strokeColor=inherit;top=0;left=0;bottom=0;right=0;collapsible=0;dropTarget=0;fillColor=none;points=[[0,0.5],[1,0.5]];portConstraint=eastwest;" vertex="1" parent="6y5OVStyXJfQSKZEXA0N-0">
          <mxGeometry y="507" width="400" height="45" as="geometry" />
        </mxCell>
        <mxCell id="6y5OVStyXJfQSKZEXA0N-68" value="&amp;nbsp;PLSlotSales@SC" style="shape=partialRectangle;html=1;whiteSpace=wrap;connectable=0;strokeColor=inherit;overflow=hidden;fillColor=none;top=0;left=0;bottom=0;right=0;pointerEvents=1;align=left;" vertex="1" parent="6y5OVStyXJfQSKZEXA0N-67">
          <mxGeometry width="160" height="45" as="geometry">
            <mxRectangle width="160" height="45" as="alternateBounds" />
          </mxGeometry>
        </mxCell>
        <mxCell id="6y5OVStyXJfQSKZEXA0N-69" value="No" style="shape=partialRectangle;html=1;whiteSpace=wrap;connectable=0;strokeColor=inherit;overflow=hidden;fillColor=none;top=0;left=0;bottom=0;right=0;pointerEvents=1;" vertex="1" parent="6y5OVStyXJfQSKZEXA0N-67">
          <mxGeometry x="160" width="60" height="45" as="geometry">
            <mxRectangle width="60" height="45" as="alternateBounds" />
          </mxGeometry>
        </mxCell>
        <mxCell id="6y5OVStyXJfQSKZEXA0N-70" value="No" style="shape=partialRectangle;html=1;whiteSpace=wrap;connectable=0;strokeColor=inherit;overflow=hidden;fillColor=none;top=0;left=0;bottom=0;right=0;pointerEvents=1;" vertex="1" parent="6y5OVStyXJfQSKZEXA0N-67">
          <mxGeometry x="220" width="60" height="45" as="geometry">
            <mxRectangle width="60" height="45" as="alternateBounds" />
          </mxGeometry>
        </mxCell>
        <mxCell id="6y5OVStyXJfQSKZEXA0N-71" value="No" style="shape=partialRectangle;html=1;whiteSpace=wrap;connectable=0;strokeColor=inherit;overflow=hidden;fillColor=none;top=0;left=0;bottom=0;right=0;pointerEvents=1;" vertex="1" parent="6y5OVStyXJfQSKZEXA0N-67">
          <mxGeometry x="280" width="60" height="45" as="geometry">
            <mxRectangle width="60" height="45" as="alternateBounds" />
          </mxGeometry>
        </mxCell>
        <mxCell id="6y5OVStyXJfQSKZEXA0N-72" value="No" style="shape=partialRectangle;html=1;whiteSpace=wrap;connectable=0;strokeColor=inherit;overflow=hidden;fillColor=none;top=0;left=0;bottom=0;right=0;pointerEvents=1;" vertex="1" parent="6y5OVStyXJfQSKZEXA0N-67">
          <mxGeometry x="340" width="60" height="45" as="geometry">
            <mxRectangle width="60" height="45" as="alternateBounds" />
          </mxGeometry>
        </mxCell>
        <mxCell id="6y5OVStyXJfQSKZEXA0N-73" value="" style="shape=tableRow;horizontal=0;startSize=0;swimlaneHead=0;swimlaneBody=0;strokeColor=inherit;top=0;left=0;bottom=0;right=0;collapsible=0;dropTarget=0;fillColor=none;points=[[0,0.5],[1,0.5]];portConstraint=eastwest;" vertex="1" parent="6y5OVStyXJfQSKZEXA0N-0">
          <mxGeometry y="552" width="400" height="46" as="geometry" />
        </mxCell>
        <mxCell id="6y5OVStyXJfQSKZEXA0N-74" value="&amp;nbsp;SandsBD@SC" style="shape=partialRectangle;html=1;whiteSpace=wrap;connectable=0;strokeColor=inherit;overflow=hidden;fillColor=none;top=0;left=0;bottom=0;right=0;pointerEvents=1;align=left;" vertex="1" parent="6y5OVStyXJfQSKZEXA0N-73">
          <mxGeometry width="160" height="46" as="geometry">
            <mxRectangle width="160" height="46" as="alternateBounds" />
          </mxGeometry>
        </mxCell>
        <mxCell id="6y5OVStyXJfQSKZEXA0N-75" value="No" style="shape=partialRectangle;html=1;whiteSpace=wrap;connectable=0;strokeColor=inherit;overflow=hidden;fillColor=none;top=0;left=0;bottom=0;right=0;pointerEvents=1;" vertex="1" parent="6y5OVStyXJfQSKZEXA0N-73">
          <mxGeometry x="160" width="60" height="46" as="geometry">
            <mxRectangle width="60" height="46" as="alternateBounds" />
          </mxGeometry>
        </mxCell>
        <mxCell id="6y5OVStyXJfQSKZEXA0N-76" value="Yes" style="shape=partialRectangle;html=1;whiteSpace=wrap;connectable=0;strokeColor=inherit;overflow=hidden;fillColor=none;top=0;left=0;bottom=0;right=0;pointerEvents=1;" vertex="1" parent="6y5OVStyXJfQSKZEXA0N-73">
          <mxGeometry x="220" width="60" height="46" as="geometry">
            <mxRectangle width="60" height="46" as="alternateBounds" />
          </mxGeometry>
        </mxCell>
        <mxCell id="6y5OVStyXJfQSKZEXA0N-77" value="Yes" style="shape=partialRectangle;html=1;whiteSpace=wrap;connectable=0;strokeColor=inherit;overflow=hidden;fillColor=none;top=0;left=0;bottom=0;right=0;pointerEvents=1;" vertex="1" parent="6y5OVStyXJfQSKZEXA0N-73">
          <mxGeometry x="280" width="60" height="46" as="geometry">
            <mxRectangle width="60" height="46" as="alternateBounds" />
          </mxGeometry>
        </mxCell>
        <mxCell id="6y5OVStyXJfQSKZEXA0N-78" value="No" style="shape=partialRectangle;html=1;whiteSpace=wrap;connectable=0;strokeColor=inherit;overflow=hidden;fillColor=none;top=0;left=0;bottom=0;right=0;pointerEvents=1;" vertex="1" parent="6y5OVStyXJfQSKZEXA0N-73">
          <mxGeometry x="340" width="60" height="46" as="geometry">
            <mxRectangle width="60" height="46" as="alternateBounds" />
          </mxGeometry>
        </mxCell>
        <mxCell id="6y5OVStyXJfQSKZEXA0N-79" value="" style="shape=tableRow;horizontal=0;startSize=0;swimlaneHead=0;swimlaneBody=0;strokeColor=inherit;top=0;left=0;bottom=0;right=0;collapsible=0;dropTarget=0;fillColor=none;points=[[0,0.5],[1,0.5]];portConstraint=eastwest;" vertex="1" parent="6y5OVStyXJfQSKZEXA0N-0">
          <mxGeometry y="598" width="400" height="47" as="geometry" />
        </mxCell>
        <mxCell id="6y5OVStyXJfQSKZEXA0N-80" value="&amp;nbsp;SandsPD@SC" style="shape=partialRectangle;html=1;whiteSpace=wrap;connectable=0;strokeColor=inherit;overflow=hidden;fillColor=none;top=0;left=0;bottom=0;right=0;pointerEvents=1;align=left;" vertex="1" parent="6y5OVStyXJfQSKZEXA0N-79">
          <mxGeometry width="160" height="47" as="geometry">
            <mxRectangle width="160" height="47" as="alternateBounds" />
          </mxGeometry>
        </mxCell>
        <mxCell id="6y5OVStyXJfQSKZEXA0N-81" value="No" style="shape=partialRectangle;html=1;whiteSpace=wrap;connectable=0;strokeColor=inherit;overflow=hidden;fillColor=none;top=0;left=0;bottom=0;right=0;pointerEvents=1;" vertex="1" parent="6y5OVStyXJfQSKZEXA0N-79">
          <mxGeometry x="160" width="60" height="47" as="geometry">
            <mxRectangle width="60" height="47" as="alternateBounds" />
          </mxGeometry>
        </mxCell>
        <mxCell id="6y5OVStyXJfQSKZEXA0N-82" value="&#xa;&lt;span style=&quot;color: rgb(0, 0, 0); font-family: Helvetica; font-size: 12px; font-style: normal; font-variant-ligatures: normal; font-variant-caps: normal; font-weight: 400; letter-spacing: normal; orphans: 2; text-align: center; text-indent: 0px; text-transform: none; widows: 2; word-spacing: 0px; -webkit-text-stroke-width: 0px; background-color: rgb(251, 251, 251); text-decoration-thickness: initial; text-decoration-style: initial; text-decoration-color: initial; float: none; display: inline !important;&quot;&gt;Yes&lt;/span&gt;&#xa;&#xa;" style="shape=partialRectangle;html=1;whiteSpace=wrap;connectable=0;strokeColor=inherit;overflow=hidden;fillColor=none;top=0;left=0;bottom=0;right=0;pointerEvents=1;" vertex="1" parent="6y5OVStyXJfQSKZEXA0N-79">
          <mxGeometry x="220" width="60" height="47" as="geometry">
            <mxRectangle width="60" height="47" as="alternateBounds" />
          </mxGeometry>
        </mxCell>
        <mxCell id="6y5OVStyXJfQSKZEXA0N-83" value="Yes" style="shape=partialRectangle;html=1;whiteSpace=wrap;connectable=0;strokeColor=inherit;overflow=hidden;fillColor=none;top=0;left=0;bottom=0;right=0;pointerEvents=1;" vertex="1" parent="6y5OVStyXJfQSKZEXA0N-79">
          <mxGeometry x="280" width="60" height="47" as="geometry">
            <mxRectangle width="60" height="47" as="alternateBounds" />
          </mxGeometry>
        </mxCell>
        <mxCell id="6y5OVStyXJfQSKZEXA0N-84" value="No" style="shape=partialRectangle;html=1;whiteSpace=wrap;connectable=0;strokeColor=inherit;overflow=hidden;fillColor=none;top=0;left=0;bottom=0;right=0;pointerEvents=1;" vertex="1" parent="6y5OVStyXJfQSKZEXA0N-79">
          <mxGeometry x="340" width="60" height="47" as="geometry">
            <mxRectangle width="60" height="47" as="alternateBounds" />
          </mxGeometry>
        </mxCell>
        <mxCell id="6y5OVStyXJfQSKZEXA0N-85" value="" style="shape=tableRow;horizontal=0;startSize=0;swimlaneHead=0;swimlaneBody=0;strokeColor=inherit;top=0;left=0;bottom=0;right=0;collapsible=0;dropTarget=0;fillColor=none;points=[[0,0.5],[1,0.5]];portConstraint=eastwest;" vertex="1" parent="6y5OVStyXJfQSKZEXA0N-0">
          <mxGeometry y="645" width="400" height="45" as="geometry" />
        </mxCell>
        <mxCell id="6y5OVStyXJfQSKZEXA0N-86" value="&amp;nbsp;SandsPremiumService@SC" style="shape=partialRectangle;html=1;whiteSpace=wrap;connectable=0;strokeColor=inherit;overflow=hidden;fillColor=none;top=0;left=0;bottom=0;right=0;pointerEvents=1;align=left;" vertex="1" parent="6y5OVStyXJfQSKZEXA0N-85">
          <mxGeometry width="160" height="45" as="geometry">
            <mxRectangle width="160" height="45" as="alternateBounds" />
          </mxGeometry>
        </mxCell>
        <mxCell id="6y5OVStyXJfQSKZEXA0N-87" value="No" style="shape=partialRectangle;html=1;whiteSpace=wrap;connectable=0;strokeColor=inherit;overflow=hidden;fillColor=none;top=0;left=0;bottom=0;right=0;pointerEvents=1;" vertex="1" parent="6y5OVStyXJfQSKZEXA0N-85">
          <mxGeometry x="160" width="60" height="45" as="geometry">
            <mxRectangle width="60" height="45" as="alternateBounds" />
          </mxGeometry>
        </mxCell>
        <mxCell id="6y5OVStyXJfQSKZEXA0N-88" value="No" style="shape=partialRectangle;html=1;whiteSpace=wrap;connectable=0;strokeColor=inherit;overflow=hidden;fillColor=none;top=0;left=0;bottom=0;right=0;pointerEvents=1;" vertex="1" parent="6y5OVStyXJfQSKZEXA0N-85">
          <mxGeometry x="220" width="60" height="45" as="geometry">
            <mxRectangle width="60" height="45" as="alternateBounds" />
          </mxGeometry>
        </mxCell>
        <mxCell id="6y5OVStyXJfQSKZEXA0N-89" value="No" style="shape=partialRectangle;html=1;whiteSpace=wrap;connectable=0;strokeColor=inherit;overflow=hidden;fillColor=none;top=0;left=0;bottom=0;right=0;pointerEvents=1;" vertex="1" parent="6y5OVStyXJfQSKZEXA0N-85">
          <mxGeometry x="280" width="60" height="45" as="geometry">
            <mxRectangle width="60" height="45" as="alternateBounds" />
          </mxGeometry>
        </mxCell>
        <mxCell id="6y5OVStyXJfQSKZEXA0N-90" value="No" style="shape=partialRectangle;html=1;whiteSpace=wrap;connectable=0;strokeColor=inherit;overflow=hidden;fillColor=none;top=0;left=0;bottom=0;right=0;pointerEvents=1;" vertex="1" parent="6y5OVStyXJfQSKZEXA0N-85">
          <mxGeometry x="340" width="60" height="45" as="geometry">
            <mxRectangle width="60" height="45" as="alternateBounds" />
          </mxGeometry>
        </mxCell>
        <mxCell id="6y5OVStyXJfQSKZEXA0N-91" value="" style="shape=tableRow;horizontal=0;startSize=0;swimlaneHead=0;swimlaneBody=0;strokeColor=inherit;top=0;left=0;bottom=0;right=0;collapsible=0;dropTarget=0;fillColor=none;points=[[0,0.5],[1,0.5]];portConstraint=eastwest;" vertex="1" parent="6y5OVStyXJfQSKZEXA0N-0">
          <mxGeometry y="690" width="400" height="47" as="geometry" />
        </mxCell>
        <mxCell id="6y5OVStyXJfQSKZEXA0N-92" value="&amp;nbsp;SandsTelesalesFT@SC" style="shape=partialRectangle;html=1;whiteSpace=wrap;connectable=0;strokeColor=inherit;overflow=hidden;fillColor=none;top=0;left=0;bottom=0;right=0;pointerEvents=1;align=left;" vertex="1" parent="6y5OVStyXJfQSKZEXA0N-91">
          <mxGeometry width="160" height="47" as="geometry">
            <mxRectangle width="160" height="47" as="alternateBounds" />
          </mxGeometry>
        </mxCell>
        <mxCell id="6y5OVStyXJfQSKZEXA0N-93" value="Yes" style="shape=partialRectangle;html=1;whiteSpace=wrap;connectable=0;strokeColor=inherit;overflow=hidden;fillColor=none;top=0;left=0;bottom=0;right=0;pointerEvents=1;" vertex="1" parent="6y5OVStyXJfQSKZEXA0N-91">
          <mxGeometry x="160" width="60" height="47" as="geometry">
            <mxRectangle width="60" height="47" as="alternateBounds" />
          </mxGeometry>
        </mxCell>
        <mxCell id="6y5OVStyXJfQSKZEXA0N-94" value="Yes" style="shape=partialRectangle;html=1;whiteSpace=wrap;connectable=0;strokeColor=inherit;overflow=hidden;fillColor=none;top=0;left=0;bottom=0;right=0;pointerEvents=1;" vertex="1" parent="6y5OVStyXJfQSKZEXA0N-91">
          <mxGeometry x="220" width="60" height="47" as="geometry">
            <mxRectangle width="60" height="47" as="alternateBounds" />
          </mxGeometry>
        </mxCell>
        <mxCell id="6y5OVStyXJfQSKZEXA0N-95" value="Yes" style="shape=partialRectangle;html=1;whiteSpace=wrap;connectable=0;strokeColor=inherit;overflow=hidden;fillColor=none;top=0;left=0;bottom=0;right=0;pointerEvents=1;" vertex="1" parent="6y5OVStyXJfQSKZEXA0N-91">
          <mxGeometry x="280" width="60" height="47" as="geometry">
            <mxRectangle width="60" height="47" as="alternateBounds" />
          </mxGeometry>
        </mxCell>
        <mxCell id="6y5OVStyXJfQSKZEXA0N-96" value="Yes" style="shape=partialRectangle;html=1;whiteSpace=wrap;connectable=0;strokeColor=inherit;overflow=hidden;fillColor=none;top=0;left=0;bottom=0;right=0;pointerEvents=1;" vertex="1" parent="6y5OVStyXJfQSKZEXA0N-91">
          <mxGeometry x="340" width="60" height="47" as="geometry">
            <mxRectangle width="60" height="47" as="alternateBounds" />
          </mxGeometry>
        </mxCell>
        <mxCell id="6y5OVStyXJfQSKZEXA0N-97" value="" style="shape=tableRow;horizontal=0;startSize=0;swimlaneHead=0;swimlaneBody=0;strokeColor=inherit;top=0;left=0;bottom=0;right=0;collapsible=0;dropTarget=0;fillColor=none;points=[[0,0.5],[1,0.5]];portConstraint=eastwest;" vertex="1" parent="6y5OVStyXJfQSKZEXA0N-0">
          <mxGeometry y="737" width="400" height="45" as="geometry" />
        </mxCell>
        <mxCell id="6y5OVStyXJfQSKZEXA0N-98" value="&amp;nbsp;SCCPremiumService@SC" style="shape=partialRectangle;html=1;whiteSpace=wrap;connectable=0;strokeColor=inherit;overflow=hidden;fillColor=none;top=0;left=0;bottom=0;right=0;pointerEvents=1;align=left;" vertex="1" parent="6y5OVStyXJfQSKZEXA0N-97">
          <mxGeometry width="160" height="45" as="geometry">
            <mxRectangle width="160" height="45" as="alternateBounds" />
          </mxGeometry>
        </mxCell>
        <mxCell id="6y5OVStyXJfQSKZEXA0N-99" value="No" style="shape=partialRectangle;html=1;whiteSpace=wrap;connectable=0;strokeColor=inherit;overflow=hidden;fillColor=none;top=0;left=0;bottom=0;right=0;pointerEvents=1;" vertex="1" parent="6y5OVStyXJfQSKZEXA0N-97">
          <mxGeometry x="160" width="60" height="45" as="geometry">
            <mxRectangle width="60" height="45" as="alternateBounds" />
          </mxGeometry>
        </mxCell>
        <mxCell id="6y5OVStyXJfQSKZEXA0N-100" value="No" style="shape=partialRectangle;html=1;whiteSpace=wrap;connectable=0;strokeColor=inherit;overflow=hidden;fillColor=none;top=0;left=0;bottom=0;right=0;pointerEvents=1;" vertex="1" parent="6y5OVStyXJfQSKZEXA0N-97">
          <mxGeometry x="220" width="60" height="45" as="geometry">
            <mxRectangle width="60" height="45" as="alternateBounds" />
          </mxGeometry>
        </mxCell>
        <mxCell id="6y5OVStyXJfQSKZEXA0N-101" value="No" style="shape=partialRectangle;html=1;whiteSpace=wrap;connectable=0;strokeColor=inherit;overflow=hidden;fillColor=none;top=0;left=0;bottom=0;right=0;pointerEvents=1;" vertex="1" parent="6y5OVStyXJfQSKZEXA0N-97">
          <mxGeometry x="280" width="60" height="45" as="geometry">
            <mxRectangle width="60" height="45" as="alternateBounds" />
          </mxGeometry>
        </mxCell>
        <mxCell id="6y5OVStyXJfQSKZEXA0N-102" value="No" style="shape=partialRectangle;html=1;whiteSpace=wrap;connectable=0;strokeColor=inherit;overflow=hidden;fillColor=none;top=0;left=0;bottom=0;right=0;pointerEvents=1;" vertex="1" parent="6y5OVStyXJfQSKZEXA0N-97">
          <mxGeometry x="340" width="60" height="45" as="geometry">
            <mxRectangle width="60" height="45" as="alternateBounds" />
          </mxGeometry>
        </mxCell>
        <mxCell id="6y5OVStyXJfQSKZEXA0N-103" value="" style="shape=tableRow;horizontal=0;startSize=0;swimlaneHead=0;swimlaneBody=0;strokeColor=inherit;top=0;left=0;bottom=0;right=0;collapsible=0;dropTarget=0;fillColor=none;points=[[0,0.5],[1,0.5]];portConstraint=eastwest;" vertex="1" parent="6y5OVStyXJfQSKZEXA0N-0">
          <mxGeometry y="782" width="400" height="46" as="geometry" />
        </mxCell>
        <mxCell id="6y5OVStyXJfQSKZEXA0N-104" value="&amp;nbsp;SCCSlotService@SC" style="shape=partialRectangle;html=1;whiteSpace=wrap;connectable=0;strokeColor=inherit;overflow=hidden;fillColor=none;top=0;left=0;bottom=0;right=0;pointerEvents=1;align=left;" vertex="1" parent="6y5OVStyXJfQSKZEXA0N-103">
          <mxGeometry width="160" height="46" as="geometry">
            <mxRectangle width="160" height="46" as="alternateBounds" />
          </mxGeometry>
        </mxCell>
        <mxCell id="6y5OVStyXJfQSKZEXA0N-105" value="No" style="shape=partialRectangle;html=1;whiteSpace=wrap;connectable=0;strokeColor=inherit;overflow=hidden;fillColor=none;top=0;left=0;bottom=0;right=0;pointerEvents=1;" vertex="1" parent="6y5OVStyXJfQSKZEXA0N-103">
          <mxGeometry x="160" width="60" height="46" as="geometry">
            <mxRectangle width="60" height="46" as="alternateBounds" />
          </mxGeometry>
        </mxCell>
        <mxCell id="6y5OVStyXJfQSKZEXA0N-106" value="No" style="shape=partialRectangle;html=1;whiteSpace=wrap;connectable=0;strokeColor=inherit;overflow=hidden;fillColor=none;top=0;left=0;bottom=0;right=0;pointerEvents=1;" vertex="1" parent="6y5OVStyXJfQSKZEXA0N-103">
          <mxGeometry x="220" width="60" height="46" as="geometry">
            <mxRectangle width="60" height="46" as="alternateBounds" />
          </mxGeometry>
        </mxCell>
        <mxCell id="6y5OVStyXJfQSKZEXA0N-107" value="No" style="shape=partialRectangle;html=1;whiteSpace=wrap;connectable=0;strokeColor=inherit;overflow=hidden;fillColor=none;top=0;left=0;bottom=0;right=0;pointerEvents=1;" vertex="1" parent="6y5OVStyXJfQSKZEXA0N-103">
          <mxGeometry x="280" width="60" height="46" as="geometry">
            <mxRectangle width="60" height="46" as="alternateBounds" />
          </mxGeometry>
        </mxCell>
        <mxCell id="6y5OVStyXJfQSKZEXA0N-108" value="No" style="shape=partialRectangle;html=1;whiteSpace=wrap;connectable=0;strokeColor=inherit;overflow=hidden;fillColor=none;top=0;left=0;bottom=0;right=0;pointerEvents=1;" vertex="1" parent="6y5OVStyXJfQSKZEXA0N-103">
          <mxGeometry x="340" width="60" height="46" as="geometry">
            <mxRectangle width="60" height="46" as="alternateBounds" />
          </mxGeometry>
        </mxCell>
        <mxCell id="6y5OVStyXJfQSKZEXA0N-109" value="" style="shape=tableRow;horizontal=0;startSize=0;swimlaneHead=0;swimlaneBody=0;strokeColor=inherit;top=0;left=0;bottom=0;right=0;collapsible=0;dropTarget=0;fillColor=none;points=[[0,0.5],[1,0.5]];portConstraint=eastwest;" vertex="1" parent="6y5OVStyXJfQSKZEXA0N-0">
          <mxGeometry y="828" width="400" height="47" as="geometry" />
        </mxCell>
        <mxCell id="6y5OVStyXJfQSKZEXA0N-110" value="&amp;nbsp;SCCTableService@SC" style="shape=partialRectangle;html=1;whiteSpace=wrap;connectable=0;strokeColor=inherit;overflow=hidden;fillColor=none;top=0;left=0;bottom=0;right=0;pointerEvents=1;align=left;" vertex="1" parent="6y5OVStyXJfQSKZEXA0N-109">
          <mxGeometry width="160" height="47" as="geometry">
            <mxRectangle width="160" height="47" as="alternateBounds" />
          </mxGeometry>
        </mxCell>
        <mxCell id="6y5OVStyXJfQSKZEXA0N-111" value="No" style="shape=partialRectangle;html=1;whiteSpace=wrap;connectable=0;strokeColor=inherit;overflow=hidden;fillColor=none;top=0;left=0;bottom=0;right=0;pointerEvents=1;" vertex="1" parent="6y5OVStyXJfQSKZEXA0N-109">
          <mxGeometry x="160" width="60" height="47" as="geometry">
            <mxRectangle width="60" height="47" as="alternateBounds" />
          </mxGeometry>
        </mxCell>
        <mxCell id="6y5OVStyXJfQSKZEXA0N-112" value="Yes" style="shape=partialRectangle;html=1;whiteSpace=wrap;connectable=0;strokeColor=inherit;overflow=hidden;fillColor=none;top=0;left=0;bottom=0;right=0;pointerEvents=1;" vertex="1" parent="6y5OVStyXJfQSKZEXA0N-109">
          <mxGeometry x="220" width="60" height="47" as="geometry">
            <mxRectangle width="60" height="47" as="alternateBounds" />
          </mxGeometry>
        </mxCell>
        <mxCell id="6y5OVStyXJfQSKZEXA0N-113" value="Yes" style="shape=partialRectangle;html=1;whiteSpace=wrap;connectable=0;strokeColor=inherit;overflow=hidden;fillColor=none;top=0;left=0;bottom=0;right=0;pointerEvents=1;" vertex="1" parent="6y5OVStyXJfQSKZEXA0N-109">
          <mxGeometry x="280" width="60" height="47" as="geometry">
            <mxRectangle width="60" height="47" as="alternateBounds" />
          </mxGeometry>
        </mxCell>
        <mxCell id="6y5OVStyXJfQSKZEXA0N-114" value="No" style="shape=partialRectangle;html=1;whiteSpace=wrap;connectable=0;strokeColor=inherit;overflow=hidden;fillColor=none;top=0;left=0;bottom=0;right=0;pointerEvents=1;" vertex="1" parent="6y5OVStyXJfQSKZEXA0N-109">
          <mxGeometry x="340" width="60" height="47" as="geometry">
            <mxRectangle width="60" height="47" as="alternateBounds" />
          </mxGeometry>
        </mxCell>
        <mxCell id="6y5OVStyXJfQSKZEXA0N-115" value="" style="shape=tableRow;horizontal=0;startSize=0;swimlaneHead=0;swimlaneBody=0;strokeColor=inherit;top=0;left=0;bottom=0;right=0;collapsible=0;dropTarget=0;fillColor=none;points=[[0,0.5],[1,0.5]];portConstraint=eastwest;" vertex="1" parent="6y5OVStyXJfQSKZEXA0N-0">
          <mxGeometry y="875" width="400" height="45" as="geometry" />
        </mxCell>
        <mxCell id="6y5OVStyXJfQSKZEXA0N-116" value="&amp;nbsp;Sharedservice@SC" style="shape=partialRectangle;html=1;whiteSpace=wrap;connectable=0;strokeColor=inherit;overflow=hidden;fillColor=none;top=0;left=0;bottom=0;right=0;pointerEvents=1;align=left;" vertex="1" parent="6y5OVStyXJfQSKZEXA0N-115">
          <mxGeometry width="160" height="45" as="geometry">
            <mxRectangle width="160" height="45" as="alternateBounds" />
          </mxGeometry>
        </mxCell>
        <mxCell id="6y5OVStyXJfQSKZEXA0N-117" value="No" style="shape=partialRectangle;html=1;whiteSpace=wrap;connectable=0;strokeColor=inherit;overflow=hidden;fillColor=none;top=0;left=0;bottom=0;right=0;pointerEvents=1;" vertex="1" parent="6y5OVStyXJfQSKZEXA0N-115">
          <mxGeometry x="160" width="60" height="45" as="geometry">
            <mxRectangle width="60" height="45" as="alternateBounds" />
          </mxGeometry>
        </mxCell>
        <mxCell id="6y5OVStyXJfQSKZEXA0N-118" value="No" style="shape=partialRectangle;html=1;whiteSpace=wrap;connectable=0;strokeColor=inherit;overflow=hidden;fillColor=none;top=0;left=0;bottom=0;right=0;pointerEvents=1;" vertex="1" parent="6y5OVStyXJfQSKZEXA0N-115">
          <mxGeometry x="220" width="60" height="45" as="geometry">
            <mxRectangle width="60" height="45" as="alternateBounds" />
          </mxGeometry>
        </mxCell>
        <mxCell id="6y5OVStyXJfQSKZEXA0N-119" value="No" style="shape=partialRectangle;html=1;whiteSpace=wrap;connectable=0;strokeColor=inherit;overflow=hidden;fillColor=none;top=0;left=0;bottom=0;right=0;pointerEvents=1;" vertex="1" parent="6y5OVStyXJfQSKZEXA0N-115">
          <mxGeometry x="280" width="60" height="45" as="geometry">
            <mxRectangle width="60" height="45" as="alternateBounds" />
          </mxGeometry>
        </mxCell>
        <mxCell id="6y5OVStyXJfQSKZEXA0N-120" value="No" style="shape=partialRectangle;html=1;whiteSpace=wrap;connectable=0;strokeColor=inherit;overflow=hidden;fillColor=none;top=0;left=0;bottom=0;right=0;pointerEvents=1;" vertex="1" parent="6y5OVStyXJfQSKZEXA0N-115">
          <mxGeometry x="340" width="60" height="45" as="geometry">
            <mxRectangle width="60" height="45" as="alternateBounds" />
          </mxGeometry>
        </mxCell>
        <mxCell id="6y5OVStyXJfQSKZEXA0N-121" value="" style="shape=tableRow;horizontal=0;startSize=0;swimlaneHead=0;swimlaneBody=0;strokeColor=inherit;top=0;left=0;bottom=0;right=0;collapsible=0;dropTarget=0;fillColor=none;points=[[0,0.5],[1,0.5]];portConstraint=eastwest;" vertex="1" parent="6y5OVStyXJfQSKZEXA0N-0">
          <mxGeometry y="920" width="400" height="47" as="geometry" />
        </mxCell>
        <mxCell id="6y5OVStyXJfQSKZEXA0N-122" value="&amp;nbsp;TelesalesFT@SC" style="shape=partialRectangle;html=1;whiteSpace=wrap;connectable=0;strokeColor=inherit;overflow=hidden;fillColor=none;top=0;left=0;bottom=0;right=0;pointerEvents=1;align=left;" vertex="1" parent="6y5OVStyXJfQSKZEXA0N-121">
          <mxGeometry width="160" height="47" as="geometry">
            <mxRectangle width="160" height="47" as="alternateBounds" />
          </mxGeometry>
        </mxCell>
        <mxCell id="6y5OVStyXJfQSKZEXA0N-123" value="Yes" style="shape=partialRectangle;html=1;whiteSpace=wrap;connectable=0;strokeColor=inherit;overflow=hidden;fillColor=none;top=0;left=0;bottom=0;right=0;pointerEvents=1;" vertex="1" parent="6y5OVStyXJfQSKZEXA0N-121">
          <mxGeometry x="160" width="60" height="47" as="geometry">
            <mxRectangle width="60" height="47" as="alternateBounds" />
          </mxGeometry>
        </mxCell>
        <mxCell id="6y5OVStyXJfQSKZEXA0N-124" value="Yes" style="shape=partialRectangle;html=1;whiteSpace=wrap;connectable=0;strokeColor=inherit;overflow=hidden;fillColor=none;top=0;left=0;bottom=0;right=0;pointerEvents=1;" vertex="1" parent="6y5OVStyXJfQSKZEXA0N-121">
          <mxGeometry x="220" width="60" height="47" as="geometry">
            <mxRectangle width="60" height="47" as="alternateBounds" />
          </mxGeometry>
        </mxCell>
        <mxCell id="6y5OVStyXJfQSKZEXA0N-125" value="Yes" style="shape=partialRectangle;html=1;whiteSpace=wrap;connectable=0;strokeColor=inherit;overflow=hidden;fillColor=none;top=0;left=0;bottom=0;right=0;pointerEvents=1;" vertex="1" parent="6y5OVStyXJfQSKZEXA0N-121">
          <mxGeometry x="280" width="60" height="47" as="geometry">
            <mxRectangle width="60" height="47" as="alternateBounds" />
          </mxGeometry>
        </mxCell>
        <mxCell id="6y5OVStyXJfQSKZEXA0N-126" value="Yes" style="shape=partialRectangle;html=1;whiteSpace=wrap;connectable=0;strokeColor=inherit;overflow=hidden;fillColor=none;top=0;left=0;bottom=0;right=0;pointerEvents=1;" vertex="1" parent="6y5OVStyXJfQSKZEXA0N-121">
          <mxGeometry x="340" width="60" height="47" as="geometry">
            <mxRectangle width="60" height="47" as="alternateBounds" />
          </mxGeometry>
        </mxCell>
        <mxCell id="6y5OVStyXJfQSKZEXA0N-127" value="" style="shape=tableRow;horizontal=0;startSize=0;swimlaneHead=0;swimlaneBody=0;strokeColor=inherit;top=0;left=0;bottom=0;right=0;collapsible=0;dropTarget=0;fillColor=none;points=[[0,0.5],[1,0.5]];portConstraint=eastwest;" vertex="1" parent="6y5OVStyXJfQSKZEXA0N-0">
          <mxGeometry y="967" width="400" height="45" as="geometry" />
        </mxCell>
        <mxCell id="6y5OVStyXJfQSKZEXA0N-128" value="&amp;nbsp;TelesalesPT@SC" style="shape=partialRectangle;html=1;whiteSpace=wrap;connectable=0;strokeColor=inherit;overflow=hidden;fillColor=none;top=0;left=0;bottom=0;right=0;pointerEvents=1;align=left;" vertex="1" parent="6y5OVStyXJfQSKZEXA0N-127">
          <mxGeometry width="160" height="45" as="geometry">
            <mxRectangle width="160" height="45" as="alternateBounds" />
          </mxGeometry>
        </mxCell>
        <mxCell id="6y5OVStyXJfQSKZEXA0N-129" value="Yes" style="shape=partialRectangle;html=1;whiteSpace=wrap;connectable=0;strokeColor=inherit;overflow=hidden;fillColor=none;top=0;left=0;bottom=0;right=0;pointerEvents=1;" vertex="1" parent="6y5OVStyXJfQSKZEXA0N-127">
          <mxGeometry x="160" width="60" height="45" as="geometry">
            <mxRectangle width="60" height="45" as="alternateBounds" />
          </mxGeometry>
        </mxCell>
        <mxCell id="6y5OVStyXJfQSKZEXA0N-130" value="Yes" style="shape=partialRectangle;html=1;whiteSpace=wrap;connectable=0;strokeColor=inherit;overflow=hidden;fillColor=none;top=0;left=0;bottom=0;right=0;pointerEvents=1;" vertex="1" parent="6y5OVStyXJfQSKZEXA0N-127">
          <mxGeometry x="220" width="60" height="45" as="geometry">
            <mxRectangle width="60" height="45" as="alternateBounds" />
          </mxGeometry>
        </mxCell>
        <mxCell id="6y5OVStyXJfQSKZEXA0N-131" value="Yes" style="shape=partialRectangle;html=1;whiteSpace=wrap;connectable=0;strokeColor=inherit;overflow=hidden;fillColor=none;top=0;left=0;bottom=0;right=0;pointerEvents=1;" vertex="1" parent="6y5OVStyXJfQSKZEXA0N-127">
          <mxGeometry x="280" width="60" height="45" as="geometry">
            <mxRectangle width="60" height="45" as="alternateBounds" />
          </mxGeometry>
        </mxCell>
        <mxCell id="6y5OVStyXJfQSKZEXA0N-132" value="Yes" style="shape=partialRectangle;html=1;whiteSpace=wrap;connectable=0;strokeColor=inherit;overflow=hidden;fillColor=none;top=0;left=0;bottom=0;right=0;pointerEvents=1;" vertex="1" parent="6y5OVStyXJfQSKZEXA0N-127">
          <mxGeometry x="340" width="60" height="45" as="geometry">
            <mxRectangle width="60" height="45" as="alternateBounds" />
          </mxGeometry>
        </mxCell>
        <mxCell id="6y5OVStyXJfQSKZEXA0N-133" value="" style="shape=tableRow;horizontal=0;startSize=0;swimlaneHead=0;swimlaneBody=0;strokeColor=inherit;top=0;left=0;bottom=0;right=0;collapsible=0;dropTarget=0;fillColor=none;points=[[0,0.5],[1,0.5]];portConstraint=eastwest;" vertex="1" parent="6y5OVStyXJfQSKZEXA0N-0">
          <mxGeometry y="1012" width="400" height="46" as="geometry" />
        </mxCell>
        <mxCell id="6y5OVStyXJfQSKZEXA0N-134" value="&amp;nbsp;VEPremiumService@SC" style="shape=partialRectangle;html=1;whiteSpace=wrap;connectable=0;strokeColor=inherit;overflow=hidden;fillColor=none;top=0;left=0;bottom=0;right=0;pointerEvents=1;align=left;" vertex="1" parent="6y5OVStyXJfQSKZEXA0N-133">
          <mxGeometry width="160" height="46" as="geometry">
            <mxRectangle width="160" height="46" as="alternateBounds" />
          </mxGeometry>
        </mxCell>
        <mxCell id="6y5OVStyXJfQSKZEXA0N-135" value="No" style="shape=partialRectangle;html=1;whiteSpace=wrap;connectable=0;strokeColor=inherit;overflow=hidden;fillColor=none;top=0;left=0;bottom=0;right=0;pointerEvents=1;" vertex="1" parent="6y5OVStyXJfQSKZEXA0N-133">
          <mxGeometry x="160" width="60" height="46" as="geometry">
            <mxRectangle width="60" height="46" as="alternateBounds" />
          </mxGeometry>
        </mxCell>
        <mxCell id="6y5OVStyXJfQSKZEXA0N-136" value="No" style="shape=partialRectangle;html=1;whiteSpace=wrap;connectable=0;strokeColor=inherit;overflow=hidden;fillColor=none;top=0;left=0;bottom=0;right=0;pointerEvents=1;" vertex="1" parent="6y5OVStyXJfQSKZEXA0N-133">
          <mxGeometry x="220" width="60" height="46" as="geometry">
            <mxRectangle width="60" height="46" as="alternateBounds" />
          </mxGeometry>
        </mxCell>
        <mxCell id="6y5OVStyXJfQSKZEXA0N-137" value="No" style="shape=partialRectangle;html=1;whiteSpace=wrap;connectable=0;strokeColor=inherit;overflow=hidden;fillColor=none;top=0;left=0;bottom=0;right=0;pointerEvents=1;" vertex="1" parent="6y5OVStyXJfQSKZEXA0N-133">
          <mxGeometry x="280" width="60" height="46" as="geometry">
            <mxRectangle width="60" height="46" as="alternateBounds" />
          </mxGeometry>
        </mxCell>
        <mxCell id="6y5OVStyXJfQSKZEXA0N-138" value="No" style="shape=partialRectangle;html=1;whiteSpace=wrap;connectable=0;strokeColor=inherit;overflow=hidden;fillColor=none;top=0;left=0;bottom=0;right=0;pointerEvents=1;" vertex="1" parent="6y5OVStyXJfQSKZEXA0N-133">
          <mxGeometry x="340" width="60" height="46" as="geometry">
            <mxRectangle width="60" height="46" as="alternateBounds" />
          </mxGeometry>
        </mxCell>
        <mxCell id="6y5OVStyXJfQSKZEXA0N-139" value="" style="shape=tableRow;horizontal=0;startSize=0;swimlaneHead=0;swimlaneBody=0;strokeColor=inherit;top=0;left=0;bottom=0;right=0;collapsible=0;dropTarget=0;fillColor=none;points=[[0,0.5],[1,0.5]];portConstraint=eastwest;" vertex="1" parent="6y5OVStyXJfQSKZEXA0N-0">
          <mxGeometry y="1058" width="400" height="45" as="geometry" />
        </mxCell>
        <mxCell id="6y5OVStyXJfQSKZEXA0N-140" value="&amp;nbsp;VESlotSales@SC" style="shape=partialRectangle;html=1;whiteSpace=wrap;connectable=0;strokeColor=inherit;overflow=hidden;fillColor=none;top=0;left=0;bottom=0;right=0;pointerEvents=1;align=left;" vertex="1" parent="6y5OVStyXJfQSKZEXA0N-139">
          <mxGeometry width="160" height="45" as="geometry">
            <mxRectangle width="160" height="45" as="alternateBounds" />
          </mxGeometry>
        </mxCell>
        <mxCell id="6y5OVStyXJfQSKZEXA0N-141" value="No" style="shape=partialRectangle;html=1;whiteSpace=wrap;connectable=0;strokeColor=inherit;overflow=hidden;fillColor=none;top=0;left=0;bottom=0;right=0;pointerEvents=1;" vertex="1" parent="6y5OVStyXJfQSKZEXA0N-139">
          <mxGeometry x="160" width="60" height="45" as="geometry">
            <mxRectangle width="60" height="45" as="alternateBounds" />
          </mxGeometry>
        </mxCell>
        <mxCell id="6y5OVStyXJfQSKZEXA0N-142" value="No" style="shape=partialRectangle;html=1;whiteSpace=wrap;connectable=0;strokeColor=inherit;overflow=hidden;fillColor=none;top=0;left=0;bottom=0;right=0;pointerEvents=1;" vertex="1" parent="6y5OVStyXJfQSKZEXA0N-139">
          <mxGeometry x="220" width="60" height="45" as="geometry">
            <mxRectangle width="60" height="45" as="alternateBounds" />
          </mxGeometry>
        </mxCell>
        <mxCell id="6y5OVStyXJfQSKZEXA0N-143" value="No" style="shape=partialRectangle;html=1;whiteSpace=wrap;connectable=0;strokeColor=inherit;overflow=hidden;fillColor=none;top=0;left=0;bottom=0;right=0;pointerEvents=1;" vertex="1" parent="6y5OVStyXJfQSKZEXA0N-139">
          <mxGeometry x="280" width="60" height="45" as="geometry">
            <mxRectangle width="60" height="45" as="alternateBounds" />
          </mxGeometry>
        </mxCell>
        <mxCell id="6y5OVStyXJfQSKZEXA0N-144" value="No" style="shape=partialRectangle;html=1;whiteSpace=wrap;connectable=0;strokeColor=inherit;overflow=hidden;fillColor=none;top=0;left=0;bottom=0;right=0;pointerEvents=1;" vertex="1" parent="6y5OVStyXJfQSKZEXA0N-139">
          <mxGeometry x="340" width="60" height="45" as="geometry">
            <mxRectangle width="60" height="45" as="alternateBounds" />
          </mxGeometry>
        </mxCell>
        <mxCell id="6y5OVStyXJfQSKZEXA0N-145" value="" style="shape=tableRow;horizontal=0;startSize=0;swimlaneHead=0;swimlaneBody=0;strokeColor=inherit;top=0;left=0;bottom=0;right=0;collapsible=0;dropTarget=0;fillColor=none;points=[[0,0.5],[1,0.5]];portConstraint=eastwest;" vertex="1" parent="6y5OVStyXJfQSKZEXA0N-0">
          <mxGeometry y="1103" width="400" height="47" as="geometry" />
        </mxCell>
        <mxCell id="6y5OVStyXJfQSKZEXA0N-146" value="&amp;nbsp;VETableSales@SC" style="shape=partialRectangle;html=1;whiteSpace=wrap;connectable=0;strokeColor=inherit;overflow=hidden;fillColor=none;top=0;left=0;bottom=0;right=0;pointerEvents=1;align=left;" vertex="1" parent="6y5OVStyXJfQSKZEXA0N-145">
          <mxGeometry width="160" height="47" as="geometry">
            <mxRectangle width="160" height="47" as="alternateBounds" />
          </mxGeometry>
        </mxCell>
        <mxCell id="6y5OVStyXJfQSKZEXA0N-147" value="No" style="shape=partialRectangle;html=1;whiteSpace=wrap;connectable=0;strokeColor=inherit;overflow=hidden;fillColor=none;top=0;left=0;bottom=0;right=0;pointerEvents=1;" vertex="1" parent="6y5OVStyXJfQSKZEXA0N-145">
          <mxGeometry x="160" width="60" height="47" as="geometry">
            <mxRectangle width="60" height="47" as="alternateBounds" />
          </mxGeometry>
        </mxCell>
        <mxCell id="6y5OVStyXJfQSKZEXA0N-148" value="Yes" style="shape=partialRectangle;html=1;whiteSpace=wrap;connectable=0;strokeColor=inherit;overflow=hidden;fillColor=none;top=0;left=0;bottom=0;right=0;pointerEvents=1;" vertex="1" parent="6y5OVStyXJfQSKZEXA0N-145">
          <mxGeometry x="220" width="60" height="47" as="geometry">
            <mxRectangle width="60" height="47" as="alternateBounds" />
          </mxGeometry>
        </mxCell>
        <mxCell id="6y5OVStyXJfQSKZEXA0N-149" value="Yes" style="shape=partialRectangle;html=1;whiteSpace=wrap;connectable=0;strokeColor=inherit;overflow=hidden;fillColor=none;top=0;left=0;bottom=0;right=0;pointerEvents=1;" vertex="1" parent="6y5OVStyXJfQSKZEXA0N-145">
          <mxGeometry x="280" width="60" height="47" as="geometry">
            <mxRectangle width="60" height="47" as="alternateBounds" />
          </mxGeometry>
        </mxCell>
        <mxCell id="6y5OVStyXJfQSKZEXA0N-150" value="No" style="shape=partialRectangle;html=1;whiteSpace=wrap;connectable=0;strokeColor=inherit;overflow=hidden;fillColor=none;top=0;left=0;bottom=0;right=0;pointerEvents=1;" vertex="1" parent="6y5OVStyXJfQSKZEXA0N-145">
          <mxGeometry x="340" width="60" height="47" as="geometry">
            <mxRectangle width="60" height="47" as="alternateBounds" />
          </mxGeometry>
        </mxCell>
      </root>
    </mxGraphModel>
  </diagram>
</mxfile>
